%TF.GenerationSoftware,KiCad,Pcbnew,8.0.1*%
%TF.CreationDate,2024-04-22T23:16:11+05:30*%
%TF.ProjectId,STEPCOUNT_PROJECT,53544550-434f-4554-9e54-5f50524f4a45,rev?*%
%TF.SameCoordinates,Original*%
%TF.FileFunction,Drillmap*%
%TF.FilePolarity,Positive*%
%FSLAX45Y45*%
G04 Gerber Fmt 4.5, Leading zero omitted, Abs format (unit mm)*
G04 Created by KiCad (PCBNEW 8.0.1) date 2024-04-22 23:16:11*
%MOMM*%
%LPD*%
G01*
G04 APERTURE LIST*
%ADD10C,0.050000*%
%ADD11C,0.200000*%
%ADD12C,0.100000*%
%ADD13C,0.110000*%
G04 APERTURE END LIST*
D10*
X11000000Y-6500000D02*
X17500000Y-6500000D01*
X17500000Y-11950000D01*
X11000000Y-11950000D01*
X11000000Y-6500000D01*
D11*
D12*
X12280000Y-8380000D02*
X12320000Y-8420000D01*
X12320000Y-8380000D02*
X12280000Y-8420000D01*
X12380000Y-8380000D02*
X12420000Y-8420000D01*
X12420000Y-8380000D02*
X12380000Y-8420000D01*
X12480000Y-8380000D02*
X12520000Y-8420000D01*
X12520000Y-8380000D02*
X12480000Y-8420000D01*
X12580000Y-8380000D02*
X12620000Y-8420000D01*
X12620000Y-8380000D02*
X12580000Y-8420000D01*
X12180000Y-8400000D02*
G75*
G02*
X12120000Y-8400000I-30000J0D01*
G01*
X12120000Y-8400000D02*
G75*
G02*
X12180000Y-8400000I30000J0D01*
G01*
X12180000Y-8800000D02*
G75*
G02*
X12120000Y-8800000I-30000J0D01*
G01*
X12120000Y-8800000D02*
G75*
G02*
X12180000Y-8800000I30000J0D01*
G01*
X12780000Y-8400000D02*
G75*
G02*
X12720000Y-8400000I-30000J0D01*
G01*
X12720000Y-8400000D02*
G75*
G02*
X12780000Y-8400000I30000J0D01*
G01*
X12780000Y-8800000D02*
G75*
G02*
X12720000Y-8800000I-30000J0D01*
G01*
X12720000Y-8800000D02*
G75*
G02*
X12780000Y-8800000I30000J0D01*
G01*
X13459500Y-9115000D02*
X13459500Y-9185000D01*
X13424500Y-9150000D02*
X13494500Y-9150000D01*
X13649500Y-9115000D02*
X13649500Y-9185000D01*
X13614500Y-9150000D02*
X13684500Y-9150000D01*
X14159500Y-9415000D02*
X14159500Y-9485000D01*
X14124500Y-9450000D02*
X14194500Y-9450000D01*
X14349500Y-9415000D02*
X14349500Y-9485000D01*
X14314500Y-9450000D02*
X14384500Y-9450000D01*
X14709500Y-9415000D02*
X14709500Y-9485000D01*
X14674500Y-9450000D02*
X14744500Y-9450000D01*
X14899500Y-9415000D02*
X14899500Y-9485000D01*
X14864500Y-9450000D02*
X14934500Y-9450000D01*
X15209500Y-9415000D02*
X15209500Y-9485000D01*
X15174500Y-9450000D02*
X15244500Y-9450000D01*
X15399500Y-9415000D02*
X15399500Y-9485000D01*
X15364500Y-9450000D02*
X15434500Y-9450000D01*
X13326941Y-10226941D02*
X13326941Y-10173059D01*
X13273059Y-10173059D01*
X13273059Y-10226941D01*
X13326941Y-10226941D01*
X13326941Y-10526941D02*
X13326941Y-10473059D01*
X13273059Y-10473059D01*
X13273059Y-10526941D01*
X13326941Y-10526941D01*
X13326941Y-10826941D02*
X13326941Y-10773059D01*
X13273059Y-10773059D01*
X13273059Y-10826941D01*
X13326941Y-10826941D01*
X13326941Y-11126941D02*
X13326941Y-11073059D01*
X13273059Y-11073059D01*
X13273059Y-11126941D01*
X13326941Y-11126941D01*
X14026941Y-10226941D02*
X14026941Y-10173059D01*
X13973059Y-10173059D01*
X13973059Y-10226941D01*
X14026941Y-10226941D01*
X14026941Y-10526941D02*
X14026941Y-10473059D01*
X13973059Y-10473059D01*
X13973059Y-10526941D01*
X14026941Y-10526941D01*
X14026941Y-10826941D02*
X14026941Y-10773059D01*
X13973059Y-10773059D01*
X13973059Y-10826941D01*
X14026941Y-10826941D01*
X14026941Y-11126941D02*
X14026941Y-11073059D01*
X13973059Y-11073059D01*
X13973059Y-11126941D01*
X14026941Y-11126941D01*
X14350000Y-9940000D02*
X14390000Y-9900000D01*
X14350000Y-9860000D01*
X14310000Y-9900000D01*
X14350000Y-9940000D01*
X14350000Y-10190000D02*
X14390000Y-10150000D01*
X14350000Y-10110000D01*
X14310000Y-10150000D01*
X14350000Y-10190000D01*
X14350000Y-10440000D02*
X14390000Y-10400000D01*
X14350000Y-10360000D01*
X14310000Y-10400000D01*
X14350000Y-10440000D01*
X14350000Y-10690000D02*
X14390000Y-10650000D01*
X14350000Y-10610000D01*
X14310000Y-10650000D01*
X14350000Y-10690000D01*
X15050000Y-9940000D02*
X15090000Y-9900000D01*
X15050000Y-9860000D01*
X15010000Y-9900000D01*
X15050000Y-9940000D01*
X15050000Y-10190000D02*
X15090000Y-10150000D01*
X15050000Y-10110000D01*
X15010000Y-10150000D01*
X15050000Y-10190000D01*
X15050000Y-10440000D02*
X15090000Y-10400000D01*
X15050000Y-10360000D01*
X15010000Y-10400000D01*
X15050000Y-10440000D01*
X15050000Y-10690000D02*
X15090000Y-10650000D01*
X15050000Y-10610000D01*
X15010000Y-10650000D01*
X15050000Y-10690000D01*
X13278000Y-7857488D02*
X13363000Y-7942488D01*
X13363000Y-7857488D02*
X13278000Y-7942488D01*
X13363000Y-7899988D02*
G75*
G02*
X13278000Y-7899988I-42500J0D01*
G01*
X13278000Y-7899988D02*
G75*
G02*
X13363000Y-7899988I42500J0D01*
G01*
X15328000Y-7857488D02*
X15413000Y-7942488D01*
X15413000Y-7857488D02*
X15328000Y-7942488D01*
X15413000Y-7899988D02*
G75*
G02*
X15328000Y-7899988I-42500J0D01*
G01*
X15328000Y-7899988D02*
G75*
G02*
X15413000Y-7899988I42500J0D01*
G01*
X12650000Y-9450000D02*
X12750000Y-9550000D01*
X12750000Y-9450000D02*
X12650000Y-9550000D01*
X12700000Y-9450000D02*
X12700000Y-9550000D01*
X12650000Y-9500000D02*
X12750000Y-9500000D01*
X12650000Y-9650000D02*
X12750000Y-9750000D01*
X12750000Y-9650000D02*
X12650000Y-9750000D01*
X12700000Y-9650000D02*
X12700000Y-9750000D01*
X12650000Y-9700000D02*
X12750000Y-9700000D01*
X12650000Y-9850000D02*
X12750000Y-9950000D01*
X12750000Y-9850000D02*
X12650000Y-9950000D01*
X12700000Y-9850000D02*
X12700000Y-9950000D01*
X12650000Y-9900000D02*
X12750000Y-9900000D01*
X12650000Y-10050000D02*
X12750000Y-10150000D01*
X12750000Y-10050000D02*
X12650000Y-10150000D01*
X12700000Y-10050000D02*
X12700000Y-10150000D01*
X12650000Y-10100000D02*
X12750000Y-10100000D01*
X12650000Y-10250000D02*
X12750000Y-10350000D01*
X12750000Y-10250000D02*
X12650000Y-10350000D01*
X12700000Y-10250000D02*
X12700000Y-10350000D01*
X12650000Y-10300000D02*
X12750000Y-10300000D01*
X12650000Y-10450000D02*
X12750000Y-10550000D01*
X12750000Y-10450000D02*
X12650000Y-10550000D01*
X12700000Y-10450000D02*
X12700000Y-10550000D01*
X12650000Y-10500000D02*
X12750000Y-10500000D01*
X12650000Y-10650000D02*
X12750000Y-10750000D01*
X12750000Y-10650000D02*
X12650000Y-10750000D01*
X12700000Y-10650000D02*
X12700000Y-10750000D01*
X12650000Y-10700000D02*
X12750000Y-10700000D01*
X12650000Y-10850000D02*
X12750000Y-10950000D01*
X12750000Y-10850000D02*
X12650000Y-10950000D01*
X12700000Y-10850000D02*
X12700000Y-10950000D01*
X12650000Y-10900000D02*
X12750000Y-10900000D01*
D13*
X15895000Y-10545000D02*
X16005000Y-10655000D01*
X16005000Y-10545000D02*
X15895000Y-10655000D01*
X15988891Y-10638891D02*
X15988891Y-10561109D01*
X15911109Y-10561109D01*
X15911109Y-10638891D01*
X15988891Y-10638891D01*
X15895000Y-11045000D02*
X16005000Y-11155000D01*
X16005000Y-11045000D02*
X15895000Y-11155000D01*
X15988891Y-11138891D02*
X15988891Y-11061109D01*
X15911109Y-11061109D01*
X15911109Y-11138891D01*
X15988891Y-11138891D01*
X16164000Y-8670000D02*
X16274000Y-8780000D01*
X16274000Y-8670000D02*
X16164000Y-8780000D01*
X16257891Y-8763891D02*
X16257891Y-8686109D01*
X16180109Y-8686109D01*
X16180109Y-8763891D01*
X16257891Y-8763891D01*
X16164000Y-9170000D02*
X16274000Y-9280000D01*
X16274000Y-9170000D02*
X16164000Y-9280000D01*
X16257891Y-9263891D02*
X16257891Y-9186109D01*
X16180109Y-9186109D01*
X16180109Y-9263891D01*
X16257891Y-9263891D01*
X16395000Y-10545000D02*
X16505000Y-10655000D01*
X16505000Y-10545000D02*
X16395000Y-10655000D01*
X16488891Y-10638891D02*
X16488891Y-10561109D01*
X16411109Y-10561109D01*
X16411109Y-10638891D01*
X16488891Y-10638891D01*
X16395000Y-11045000D02*
X16505000Y-11155000D01*
X16505000Y-11045000D02*
X16395000Y-11155000D01*
X16488891Y-11138891D02*
X16488891Y-11061109D01*
X16411109Y-11061109D01*
X16411109Y-11138891D01*
X16488891Y-11138891D01*
X16664000Y-8670000D02*
X16774000Y-8780000D01*
X16774000Y-8670000D02*
X16664000Y-8780000D01*
X16757891Y-8763891D02*
X16757891Y-8686109D01*
X16680109Y-8686109D01*
X16680109Y-8763891D01*
X16757891Y-8763891D01*
X16664000Y-9170000D02*
X16774000Y-9280000D01*
X16774000Y-9170000D02*
X16664000Y-9280000D01*
X16757891Y-9263891D02*
X16757891Y-9186109D01*
X16680109Y-9186109D01*
X16680109Y-9263891D01*
X16757891Y-9263891D01*
D11*
X11258277Y-12263984D02*
X11258277Y-12063984D01*
X11258277Y-12063984D02*
X11305896Y-12063984D01*
X11305896Y-12063984D02*
X11334467Y-12073508D01*
X11334467Y-12073508D02*
X11353515Y-12092555D01*
X11353515Y-12092555D02*
X11363039Y-12111603D01*
X11363039Y-12111603D02*
X11372562Y-12149698D01*
X11372562Y-12149698D02*
X11372562Y-12178269D01*
X11372562Y-12178269D02*
X11363039Y-12216365D01*
X11363039Y-12216365D02*
X11353515Y-12235412D01*
X11353515Y-12235412D02*
X11334467Y-12254460D01*
X11334467Y-12254460D02*
X11305896Y-12263984D01*
X11305896Y-12263984D02*
X11258277Y-12263984D01*
X11458277Y-12263984D02*
X11458277Y-12130650D01*
X11458277Y-12168746D02*
X11467801Y-12149698D01*
X11467801Y-12149698D02*
X11477324Y-12140174D01*
X11477324Y-12140174D02*
X11496372Y-12130650D01*
X11496372Y-12130650D02*
X11515420Y-12130650D01*
X11582086Y-12263984D02*
X11582086Y-12130650D01*
X11582086Y-12063984D02*
X11572562Y-12073508D01*
X11572562Y-12073508D02*
X11582086Y-12083031D01*
X11582086Y-12083031D02*
X11591610Y-12073508D01*
X11591610Y-12073508D02*
X11582086Y-12063984D01*
X11582086Y-12063984D02*
X11582086Y-12083031D01*
X11705896Y-12263984D02*
X11686848Y-12254460D01*
X11686848Y-12254460D02*
X11677324Y-12235412D01*
X11677324Y-12235412D02*
X11677324Y-12063984D01*
X11810658Y-12263984D02*
X11791610Y-12254460D01*
X11791610Y-12254460D02*
X11782086Y-12235412D01*
X11782086Y-12235412D02*
X11782086Y-12063984D01*
X12039229Y-12263984D02*
X12039229Y-12063984D01*
X12039229Y-12063984D02*
X12105896Y-12206841D01*
X12105896Y-12206841D02*
X12172562Y-12063984D01*
X12172562Y-12063984D02*
X12172562Y-12263984D01*
X12353515Y-12263984D02*
X12353515Y-12159222D01*
X12353515Y-12159222D02*
X12343991Y-12140174D01*
X12343991Y-12140174D02*
X12324943Y-12130650D01*
X12324943Y-12130650D02*
X12286848Y-12130650D01*
X12286848Y-12130650D02*
X12267801Y-12140174D01*
X12353515Y-12254460D02*
X12334467Y-12263984D01*
X12334467Y-12263984D02*
X12286848Y-12263984D01*
X12286848Y-12263984D02*
X12267801Y-12254460D01*
X12267801Y-12254460D02*
X12258277Y-12235412D01*
X12258277Y-12235412D02*
X12258277Y-12216365D01*
X12258277Y-12216365D02*
X12267801Y-12197317D01*
X12267801Y-12197317D02*
X12286848Y-12187793D01*
X12286848Y-12187793D02*
X12334467Y-12187793D01*
X12334467Y-12187793D02*
X12353515Y-12178269D01*
X12448753Y-12130650D02*
X12448753Y-12330650D01*
X12448753Y-12140174D02*
X12467801Y-12130650D01*
X12467801Y-12130650D02*
X12505896Y-12130650D01*
X12505896Y-12130650D02*
X12524943Y-12140174D01*
X12524943Y-12140174D02*
X12534467Y-12149698D01*
X12534467Y-12149698D02*
X12543991Y-12168746D01*
X12543991Y-12168746D02*
X12543991Y-12225888D01*
X12543991Y-12225888D02*
X12534467Y-12244936D01*
X12534467Y-12244936D02*
X12524943Y-12254460D01*
X12524943Y-12254460D02*
X12505896Y-12263984D01*
X12505896Y-12263984D02*
X12467801Y-12263984D01*
X12467801Y-12263984D02*
X12448753Y-12254460D01*
X12629705Y-12244936D02*
X12639229Y-12254460D01*
X12639229Y-12254460D02*
X12629705Y-12263984D01*
X12629705Y-12263984D02*
X12620182Y-12254460D01*
X12620182Y-12254460D02*
X12629705Y-12244936D01*
X12629705Y-12244936D02*
X12629705Y-12263984D01*
X12629705Y-12140174D02*
X12639229Y-12149698D01*
X12639229Y-12149698D02*
X12629705Y-12159222D01*
X12629705Y-12159222D02*
X12620182Y-12149698D01*
X12620182Y-12149698D02*
X12629705Y-12140174D01*
X12629705Y-12140174D02*
X12629705Y-12159222D01*
D12*
X10957500Y-12572500D02*
X10997500Y-12612500D01*
X10997500Y-12572500D02*
X10957500Y-12612500D01*
D11*
X11296372Y-12483984D02*
X11315420Y-12483984D01*
X11315420Y-12483984D02*
X11334467Y-12493508D01*
X11334467Y-12493508D02*
X11343991Y-12503031D01*
X11343991Y-12503031D02*
X11353515Y-12522079D01*
X11353515Y-12522079D02*
X11363039Y-12560174D01*
X11363039Y-12560174D02*
X11363039Y-12607793D01*
X11363039Y-12607793D02*
X11353515Y-12645888D01*
X11353515Y-12645888D02*
X11343991Y-12664936D01*
X11343991Y-12664936D02*
X11334467Y-12674460D01*
X11334467Y-12674460D02*
X11315420Y-12683984D01*
X11315420Y-12683984D02*
X11296372Y-12683984D01*
X11296372Y-12683984D02*
X11277324Y-12674460D01*
X11277324Y-12674460D02*
X11267801Y-12664936D01*
X11267801Y-12664936D02*
X11258277Y-12645888D01*
X11258277Y-12645888D02*
X11248753Y-12607793D01*
X11248753Y-12607793D02*
X11248753Y-12560174D01*
X11248753Y-12560174D02*
X11258277Y-12522079D01*
X11258277Y-12522079D02*
X11267801Y-12503031D01*
X11267801Y-12503031D02*
X11277324Y-12493508D01*
X11277324Y-12493508D02*
X11296372Y-12483984D01*
X11448753Y-12664936D02*
X11458277Y-12674460D01*
X11458277Y-12674460D02*
X11448753Y-12683984D01*
X11448753Y-12683984D02*
X11439229Y-12674460D01*
X11439229Y-12674460D02*
X11448753Y-12664936D01*
X11448753Y-12664936D02*
X11448753Y-12683984D01*
X11629705Y-12550650D02*
X11629705Y-12683984D01*
X11582086Y-12474460D02*
X11534467Y-12617317D01*
X11534467Y-12617317D02*
X11658277Y-12617317D01*
X11772562Y-12483984D02*
X11791610Y-12483984D01*
X11791610Y-12483984D02*
X11810658Y-12493508D01*
X11810658Y-12493508D02*
X11820182Y-12503031D01*
X11820182Y-12503031D02*
X11829705Y-12522079D01*
X11829705Y-12522079D02*
X11839229Y-12560174D01*
X11839229Y-12560174D02*
X11839229Y-12607793D01*
X11839229Y-12607793D02*
X11829705Y-12645888D01*
X11829705Y-12645888D02*
X11820182Y-12664936D01*
X11820182Y-12664936D02*
X11810658Y-12674460D01*
X11810658Y-12674460D02*
X11791610Y-12683984D01*
X11791610Y-12683984D02*
X11772562Y-12683984D01*
X11772562Y-12683984D02*
X11753515Y-12674460D01*
X11753515Y-12674460D02*
X11743991Y-12664936D01*
X11743991Y-12664936D02*
X11734467Y-12645888D01*
X11734467Y-12645888D02*
X11724943Y-12607793D01*
X11724943Y-12607793D02*
X11724943Y-12560174D01*
X11724943Y-12560174D02*
X11734467Y-12522079D01*
X11734467Y-12522079D02*
X11743991Y-12503031D01*
X11743991Y-12503031D02*
X11753515Y-12493508D01*
X11753515Y-12493508D02*
X11772562Y-12483984D01*
X11963039Y-12483984D02*
X11982086Y-12483984D01*
X11982086Y-12483984D02*
X12001134Y-12493508D01*
X12001134Y-12493508D02*
X12010658Y-12503031D01*
X12010658Y-12503031D02*
X12020182Y-12522079D01*
X12020182Y-12522079D02*
X12029705Y-12560174D01*
X12029705Y-12560174D02*
X12029705Y-12607793D01*
X12029705Y-12607793D02*
X12020182Y-12645888D01*
X12020182Y-12645888D02*
X12010658Y-12664936D01*
X12010658Y-12664936D02*
X12001134Y-12674460D01*
X12001134Y-12674460D02*
X11982086Y-12683984D01*
X11982086Y-12683984D02*
X11963039Y-12683984D01*
X11963039Y-12683984D02*
X11943991Y-12674460D01*
X11943991Y-12674460D02*
X11934467Y-12664936D01*
X11934467Y-12664936D02*
X11924943Y-12645888D01*
X11924943Y-12645888D02*
X11915420Y-12607793D01*
X11915420Y-12607793D02*
X11915420Y-12560174D01*
X11915420Y-12560174D02*
X11924943Y-12522079D01*
X11924943Y-12522079D02*
X11934467Y-12503031D01*
X11934467Y-12503031D02*
X11943991Y-12493508D01*
X11943991Y-12493508D02*
X11963039Y-12483984D01*
X12115420Y-12683984D02*
X12115420Y-12550650D01*
X12115420Y-12569698D02*
X12124943Y-12560174D01*
X12124943Y-12560174D02*
X12143991Y-12550650D01*
X12143991Y-12550650D02*
X12172563Y-12550650D01*
X12172563Y-12550650D02*
X12191610Y-12560174D01*
X12191610Y-12560174D02*
X12201134Y-12579222D01*
X12201134Y-12579222D02*
X12201134Y-12683984D01*
X12201134Y-12579222D02*
X12210658Y-12560174D01*
X12210658Y-12560174D02*
X12229705Y-12550650D01*
X12229705Y-12550650D02*
X12258277Y-12550650D01*
X12258277Y-12550650D02*
X12277324Y-12560174D01*
X12277324Y-12560174D02*
X12286848Y-12579222D01*
X12286848Y-12579222D02*
X12286848Y-12683984D01*
X12382086Y-12683984D02*
X12382086Y-12550650D01*
X12382086Y-12569698D02*
X12391610Y-12560174D01*
X12391610Y-12560174D02*
X12410658Y-12550650D01*
X12410658Y-12550650D02*
X12439229Y-12550650D01*
X12439229Y-12550650D02*
X12458277Y-12560174D01*
X12458277Y-12560174D02*
X12467801Y-12579222D01*
X12467801Y-12579222D02*
X12467801Y-12683984D01*
X12467801Y-12579222D02*
X12477324Y-12560174D01*
X12477324Y-12560174D02*
X12496372Y-12550650D01*
X12496372Y-12550650D02*
X12524943Y-12550650D01*
X12524943Y-12550650D02*
X12543991Y-12560174D01*
X12543991Y-12560174D02*
X12553515Y-12579222D01*
X12553515Y-12579222D02*
X12553515Y-12683984D01*
X12943991Y-12474460D02*
X12772563Y-12731603D01*
X13201134Y-12483984D02*
X13220182Y-12483984D01*
X13220182Y-12483984D02*
X13239229Y-12493508D01*
X13239229Y-12493508D02*
X13248753Y-12503031D01*
X13248753Y-12503031D02*
X13258277Y-12522079D01*
X13258277Y-12522079D02*
X13267801Y-12560174D01*
X13267801Y-12560174D02*
X13267801Y-12607793D01*
X13267801Y-12607793D02*
X13258277Y-12645888D01*
X13258277Y-12645888D02*
X13248753Y-12664936D01*
X13248753Y-12664936D02*
X13239229Y-12674460D01*
X13239229Y-12674460D02*
X13220182Y-12683984D01*
X13220182Y-12683984D02*
X13201134Y-12683984D01*
X13201134Y-12683984D02*
X13182086Y-12674460D01*
X13182086Y-12674460D02*
X13172563Y-12664936D01*
X13172563Y-12664936D02*
X13163039Y-12645888D01*
X13163039Y-12645888D02*
X13153515Y-12607793D01*
X13153515Y-12607793D02*
X13153515Y-12560174D01*
X13153515Y-12560174D02*
X13163039Y-12522079D01*
X13163039Y-12522079D02*
X13172563Y-12503031D01*
X13172563Y-12503031D02*
X13182086Y-12493508D01*
X13182086Y-12493508D02*
X13201134Y-12483984D01*
X13353515Y-12664936D02*
X13363039Y-12674460D01*
X13363039Y-12674460D02*
X13353515Y-12683984D01*
X13353515Y-12683984D02*
X13343991Y-12674460D01*
X13343991Y-12674460D02*
X13353515Y-12664936D01*
X13353515Y-12664936D02*
X13353515Y-12683984D01*
X13486848Y-12483984D02*
X13505896Y-12483984D01*
X13505896Y-12483984D02*
X13524944Y-12493508D01*
X13524944Y-12493508D02*
X13534467Y-12503031D01*
X13534467Y-12503031D02*
X13543991Y-12522079D01*
X13543991Y-12522079D02*
X13553515Y-12560174D01*
X13553515Y-12560174D02*
X13553515Y-12607793D01*
X13553515Y-12607793D02*
X13543991Y-12645888D01*
X13543991Y-12645888D02*
X13534467Y-12664936D01*
X13534467Y-12664936D02*
X13524944Y-12674460D01*
X13524944Y-12674460D02*
X13505896Y-12683984D01*
X13505896Y-12683984D02*
X13486848Y-12683984D01*
X13486848Y-12683984D02*
X13467801Y-12674460D01*
X13467801Y-12674460D02*
X13458277Y-12664936D01*
X13458277Y-12664936D02*
X13448753Y-12645888D01*
X13448753Y-12645888D02*
X13439229Y-12607793D01*
X13439229Y-12607793D02*
X13439229Y-12560174D01*
X13439229Y-12560174D02*
X13448753Y-12522079D01*
X13448753Y-12522079D02*
X13458277Y-12503031D01*
X13458277Y-12503031D02*
X13467801Y-12493508D01*
X13467801Y-12493508D02*
X13486848Y-12483984D01*
X13743991Y-12683984D02*
X13629706Y-12683984D01*
X13686848Y-12683984D02*
X13686848Y-12483984D01*
X13686848Y-12483984D02*
X13667801Y-12512555D01*
X13667801Y-12512555D02*
X13648753Y-12531603D01*
X13648753Y-12531603D02*
X13629706Y-12541127D01*
X13924944Y-12483984D02*
X13829706Y-12483984D01*
X13829706Y-12483984D02*
X13820182Y-12579222D01*
X13820182Y-12579222D02*
X13829706Y-12569698D01*
X13829706Y-12569698D02*
X13848753Y-12560174D01*
X13848753Y-12560174D02*
X13896372Y-12560174D01*
X13896372Y-12560174D02*
X13915420Y-12569698D01*
X13915420Y-12569698D02*
X13924944Y-12579222D01*
X13924944Y-12579222D02*
X13934467Y-12598269D01*
X13934467Y-12598269D02*
X13934467Y-12645888D01*
X13934467Y-12645888D02*
X13924944Y-12664936D01*
X13924944Y-12664936D02*
X13915420Y-12674460D01*
X13915420Y-12674460D02*
X13896372Y-12683984D01*
X13896372Y-12683984D02*
X13848753Y-12683984D01*
X13848753Y-12683984D02*
X13829706Y-12674460D01*
X13829706Y-12674460D02*
X13820182Y-12664936D01*
X14001134Y-12483984D02*
X14134467Y-12483984D01*
X14134467Y-12483984D02*
X14048753Y-12683984D01*
X14201134Y-12483984D02*
X14201134Y-12522079D01*
X14277325Y-12483984D02*
X14277325Y-12522079D01*
X14572563Y-12760174D02*
X14563039Y-12750650D01*
X14563039Y-12750650D02*
X14543991Y-12722079D01*
X14543991Y-12722079D02*
X14534468Y-12703031D01*
X14534468Y-12703031D02*
X14524944Y-12674460D01*
X14524944Y-12674460D02*
X14515420Y-12626841D01*
X14515420Y-12626841D02*
X14515420Y-12588746D01*
X14515420Y-12588746D02*
X14524944Y-12541127D01*
X14524944Y-12541127D02*
X14534468Y-12512555D01*
X14534468Y-12512555D02*
X14543991Y-12493508D01*
X14543991Y-12493508D02*
X14563039Y-12464936D01*
X14563039Y-12464936D02*
X14572563Y-12455412D01*
X14734468Y-12550650D02*
X14734468Y-12683984D01*
X14686848Y-12474460D02*
X14639229Y-12617317D01*
X14639229Y-12617317D02*
X14763039Y-12617317D01*
X14991610Y-12683984D02*
X14991610Y-12483984D01*
X15077325Y-12683984D02*
X15077325Y-12579222D01*
X15077325Y-12579222D02*
X15067801Y-12560174D01*
X15067801Y-12560174D02*
X15048753Y-12550650D01*
X15048753Y-12550650D02*
X15020182Y-12550650D01*
X15020182Y-12550650D02*
X15001134Y-12560174D01*
X15001134Y-12560174D02*
X14991610Y-12569698D01*
X15201134Y-12683984D02*
X15182087Y-12674460D01*
X15182087Y-12674460D02*
X15172563Y-12664936D01*
X15172563Y-12664936D02*
X15163039Y-12645888D01*
X15163039Y-12645888D02*
X15163039Y-12588746D01*
X15163039Y-12588746D02*
X15172563Y-12569698D01*
X15172563Y-12569698D02*
X15182087Y-12560174D01*
X15182087Y-12560174D02*
X15201134Y-12550650D01*
X15201134Y-12550650D02*
X15229706Y-12550650D01*
X15229706Y-12550650D02*
X15248753Y-12560174D01*
X15248753Y-12560174D02*
X15258277Y-12569698D01*
X15258277Y-12569698D02*
X15267801Y-12588746D01*
X15267801Y-12588746D02*
X15267801Y-12645888D01*
X15267801Y-12645888D02*
X15258277Y-12664936D01*
X15258277Y-12664936D02*
X15248753Y-12674460D01*
X15248753Y-12674460D02*
X15229706Y-12683984D01*
X15229706Y-12683984D02*
X15201134Y-12683984D01*
X15382087Y-12683984D02*
X15363039Y-12674460D01*
X15363039Y-12674460D02*
X15353515Y-12655412D01*
X15353515Y-12655412D02*
X15353515Y-12483984D01*
X15534468Y-12674460D02*
X15515420Y-12683984D01*
X15515420Y-12683984D02*
X15477325Y-12683984D01*
X15477325Y-12683984D02*
X15458277Y-12674460D01*
X15458277Y-12674460D02*
X15448753Y-12655412D01*
X15448753Y-12655412D02*
X15448753Y-12579222D01*
X15448753Y-12579222D02*
X15458277Y-12560174D01*
X15458277Y-12560174D02*
X15477325Y-12550650D01*
X15477325Y-12550650D02*
X15515420Y-12550650D01*
X15515420Y-12550650D02*
X15534468Y-12560174D01*
X15534468Y-12560174D02*
X15543991Y-12579222D01*
X15543991Y-12579222D02*
X15543991Y-12598269D01*
X15543991Y-12598269D02*
X15448753Y-12617317D01*
X15620182Y-12674460D02*
X15639230Y-12683984D01*
X15639230Y-12683984D02*
X15677325Y-12683984D01*
X15677325Y-12683984D02*
X15696372Y-12674460D01*
X15696372Y-12674460D02*
X15705896Y-12655412D01*
X15705896Y-12655412D02*
X15705896Y-12645888D01*
X15705896Y-12645888D02*
X15696372Y-12626841D01*
X15696372Y-12626841D02*
X15677325Y-12617317D01*
X15677325Y-12617317D02*
X15648753Y-12617317D01*
X15648753Y-12617317D02*
X15629706Y-12607793D01*
X15629706Y-12607793D02*
X15620182Y-12588746D01*
X15620182Y-12588746D02*
X15620182Y-12579222D01*
X15620182Y-12579222D02*
X15629706Y-12560174D01*
X15629706Y-12560174D02*
X15648753Y-12550650D01*
X15648753Y-12550650D02*
X15677325Y-12550650D01*
X15677325Y-12550650D02*
X15696372Y-12560174D01*
X15772563Y-12760174D02*
X15782087Y-12750650D01*
X15782087Y-12750650D02*
X15801134Y-12722079D01*
X15801134Y-12722079D02*
X15810658Y-12703031D01*
X15810658Y-12703031D02*
X15820182Y-12674460D01*
X15820182Y-12674460D02*
X15829706Y-12626841D01*
X15829706Y-12626841D02*
X15829706Y-12588746D01*
X15829706Y-12588746D02*
X15820182Y-12541127D01*
X15820182Y-12541127D02*
X15810658Y-12512555D01*
X15810658Y-12512555D02*
X15801134Y-12493508D01*
X15801134Y-12493508D02*
X15782087Y-12464936D01*
X15782087Y-12464936D02*
X15772563Y-12455412D01*
D12*
X10997500Y-12856500D02*
G75*
G02*
X10937500Y-12856500I-30000J0D01*
G01*
X10937500Y-12856500D02*
G75*
G02*
X10997500Y-12856500I30000J0D01*
G01*
D11*
X11296372Y-12747984D02*
X11315420Y-12747984D01*
X11315420Y-12747984D02*
X11334467Y-12757508D01*
X11334467Y-12757508D02*
X11343991Y-12767031D01*
X11343991Y-12767031D02*
X11353515Y-12786079D01*
X11353515Y-12786079D02*
X11363039Y-12824174D01*
X11363039Y-12824174D02*
X11363039Y-12871793D01*
X11363039Y-12871793D02*
X11353515Y-12909888D01*
X11353515Y-12909888D02*
X11343991Y-12928936D01*
X11343991Y-12928936D02*
X11334467Y-12938460D01*
X11334467Y-12938460D02*
X11315420Y-12947984D01*
X11315420Y-12947984D02*
X11296372Y-12947984D01*
X11296372Y-12947984D02*
X11277324Y-12938460D01*
X11277324Y-12938460D02*
X11267801Y-12928936D01*
X11267801Y-12928936D02*
X11258277Y-12909888D01*
X11258277Y-12909888D02*
X11248753Y-12871793D01*
X11248753Y-12871793D02*
X11248753Y-12824174D01*
X11248753Y-12824174D02*
X11258277Y-12786079D01*
X11258277Y-12786079D02*
X11267801Y-12767031D01*
X11267801Y-12767031D02*
X11277324Y-12757508D01*
X11277324Y-12757508D02*
X11296372Y-12747984D01*
X11448753Y-12928936D02*
X11458277Y-12938460D01*
X11458277Y-12938460D02*
X11448753Y-12947984D01*
X11448753Y-12947984D02*
X11439229Y-12938460D01*
X11439229Y-12938460D02*
X11448753Y-12928936D01*
X11448753Y-12928936D02*
X11448753Y-12947984D01*
X11629705Y-12747984D02*
X11591610Y-12747984D01*
X11591610Y-12747984D02*
X11572562Y-12757508D01*
X11572562Y-12757508D02*
X11563039Y-12767031D01*
X11563039Y-12767031D02*
X11543991Y-12795603D01*
X11543991Y-12795603D02*
X11534467Y-12833698D01*
X11534467Y-12833698D02*
X11534467Y-12909888D01*
X11534467Y-12909888D02*
X11543991Y-12928936D01*
X11543991Y-12928936D02*
X11553515Y-12938460D01*
X11553515Y-12938460D02*
X11572562Y-12947984D01*
X11572562Y-12947984D02*
X11610658Y-12947984D01*
X11610658Y-12947984D02*
X11629705Y-12938460D01*
X11629705Y-12938460D02*
X11639229Y-12928936D01*
X11639229Y-12928936D02*
X11648753Y-12909888D01*
X11648753Y-12909888D02*
X11648753Y-12862269D01*
X11648753Y-12862269D02*
X11639229Y-12843222D01*
X11639229Y-12843222D02*
X11629705Y-12833698D01*
X11629705Y-12833698D02*
X11610658Y-12824174D01*
X11610658Y-12824174D02*
X11572562Y-12824174D01*
X11572562Y-12824174D02*
X11553515Y-12833698D01*
X11553515Y-12833698D02*
X11543991Y-12843222D01*
X11543991Y-12843222D02*
X11534467Y-12862269D01*
X11772562Y-12747984D02*
X11791610Y-12747984D01*
X11791610Y-12747984D02*
X11810658Y-12757508D01*
X11810658Y-12757508D02*
X11820182Y-12767031D01*
X11820182Y-12767031D02*
X11829705Y-12786079D01*
X11829705Y-12786079D02*
X11839229Y-12824174D01*
X11839229Y-12824174D02*
X11839229Y-12871793D01*
X11839229Y-12871793D02*
X11829705Y-12909888D01*
X11829705Y-12909888D02*
X11820182Y-12928936D01*
X11820182Y-12928936D02*
X11810658Y-12938460D01*
X11810658Y-12938460D02*
X11791610Y-12947984D01*
X11791610Y-12947984D02*
X11772562Y-12947984D01*
X11772562Y-12947984D02*
X11753515Y-12938460D01*
X11753515Y-12938460D02*
X11743991Y-12928936D01*
X11743991Y-12928936D02*
X11734467Y-12909888D01*
X11734467Y-12909888D02*
X11724943Y-12871793D01*
X11724943Y-12871793D02*
X11724943Y-12824174D01*
X11724943Y-12824174D02*
X11734467Y-12786079D01*
X11734467Y-12786079D02*
X11743991Y-12767031D01*
X11743991Y-12767031D02*
X11753515Y-12757508D01*
X11753515Y-12757508D02*
X11772562Y-12747984D01*
X11963039Y-12747984D02*
X11982086Y-12747984D01*
X11982086Y-12747984D02*
X12001134Y-12757508D01*
X12001134Y-12757508D02*
X12010658Y-12767031D01*
X12010658Y-12767031D02*
X12020182Y-12786079D01*
X12020182Y-12786079D02*
X12029705Y-12824174D01*
X12029705Y-12824174D02*
X12029705Y-12871793D01*
X12029705Y-12871793D02*
X12020182Y-12909888D01*
X12020182Y-12909888D02*
X12010658Y-12928936D01*
X12010658Y-12928936D02*
X12001134Y-12938460D01*
X12001134Y-12938460D02*
X11982086Y-12947984D01*
X11982086Y-12947984D02*
X11963039Y-12947984D01*
X11963039Y-12947984D02*
X11943991Y-12938460D01*
X11943991Y-12938460D02*
X11934467Y-12928936D01*
X11934467Y-12928936D02*
X11924943Y-12909888D01*
X11924943Y-12909888D02*
X11915420Y-12871793D01*
X11915420Y-12871793D02*
X11915420Y-12824174D01*
X11915420Y-12824174D02*
X11924943Y-12786079D01*
X11924943Y-12786079D02*
X11934467Y-12767031D01*
X11934467Y-12767031D02*
X11943991Y-12757508D01*
X11943991Y-12757508D02*
X11963039Y-12747984D01*
X12115420Y-12947984D02*
X12115420Y-12814650D01*
X12115420Y-12833698D02*
X12124943Y-12824174D01*
X12124943Y-12824174D02*
X12143991Y-12814650D01*
X12143991Y-12814650D02*
X12172563Y-12814650D01*
X12172563Y-12814650D02*
X12191610Y-12824174D01*
X12191610Y-12824174D02*
X12201134Y-12843222D01*
X12201134Y-12843222D02*
X12201134Y-12947984D01*
X12201134Y-12843222D02*
X12210658Y-12824174D01*
X12210658Y-12824174D02*
X12229705Y-12814650D01*
X12229705Y-12814650D02*
X12258277Y-12814650D01*
X12258277Y-12814650D02*
X12277324Y-12824174D01*
X12277324Y-12824174D02*
X12286848Y-12843222D01*
X12286848Y-12843222D02*
X12286848Y-12947984D01*
X12382086Y-12947984D02*
X12382086Y-12814650D01*
X12382086Y-12833698D02*
X12391610Y-12824174D01*
X12391610Y-12824174D02*
X12410658Y-12814650D01*
X12410658Y-12814650D02*
X12439229Y-12814650D01*
X12439229Y-12814650D02*
X12458277Y-12824174D01*
X12458277Y-12824174D02*
X12467801Y-12843222D01*
X12467801Y-12843222D02*
X12467801Y-12947984D01*
X12467801Y-12843222D02*
X12477324Y-12824174D01*
X12477324Y-12824174D02*
X12496372Y-12814650D01*
X12496372Y-12814650D02*
X12524943Y-12814650D01*
X12524943Y-12814650D02*
X12543991Y-12824174D01*
X12543991Y-12824174D02*
X12553515Y-12843222D01*
X12553515Y-12843222D02*
X12553515Y-12947984D01*
X12943991Y-12738460D02*
X12772563Y-12995603D01*
X13201134Y-12747984D02*
X13220182Y-12747984D01*
X13220182Y-12747984D02*
X13239229Y-12757508D01*
X13239229Y-12757508D02*
X13248753Y-12767031D01*
X13248753Y-12767031D02*
X13258277Y-12786079D01*
X13258277Y-12786079D02*
X13267801Y-12824174D01*
X13267801Y-12824174D02*
X13267801Y-12871793D01*
X13267801Y-12871793D02*
X13258277Y-12909888D01*
X13258277Y-12909888D02*
X13248753Y-12928936D01*
X13248753Y-12928936D02*
X13239229Y-12938460D01*
X13239229Y-12938460D02*
X13220182Y-12947984D01*
X13220182Y-12947984D02*
X13201134Y-12947984D01*
X13201134Y-12947984D02*
X13182086Y-12938460D01*
X13182086Y-12938460D02*
X13172563Y-12928936D01*
X13172563Y-12928936D02*
X13163039Y-12909888D01*
X13163039Y-12909888D02*
X13153515Y-12871793D01*
X13153515Y-12871793D02*
X13153515Y-12824174D01*
X13153515Y-12824174D02*
X13163039Y-12786079D01*
X13163039Y-12786079D02*
X13172563Y-12767031D01*
X13172563Y-12767031D02*
X13182086Y-12757508D01*
X13182086Y-12757508D02*
X13201134Y-12747984D01*
X13353515Y-12928936D02*
X13363039Y-12938460D01*
X13363039Y-12938460D02*
X13353515Y-12947984D01*
X13353515Y-12947984D02*
X13343991Y-12938460D01*
X13343991Y-12938460D02*
X13353515Y-12928936D01*
X13353515Y-12928936D02*
X13353515Y-12947984D01*
X13486848Y-12747984D02*
X13505896Y-12747984D01*
X13505896Y-12747984D02*
X13524944Y-12757508D01*
X13524944Y-12757508D02*
X13534467Y-12767031D01*
X13534467Y-12767031D02*
X13543991Y-12786079D01*
X13543991Y-12786079D02*
X13553515Y-12824174D01*
X13553515Y-12824174D02*
X13553515Y-12871793D01*
X13553515Y-12871793D02*
X13543991Y-12909888D01*
X13543991Y-12909888D02*
X13534467Y-12928936D01*
X13534467Y-12928936D02*
X13524944Y-12938460D01*
X13524944Y-12938460D02*
X13505896Y-12947984D01*
X13505896Y-12947984D02*
X13486848Y-12947984D01*
X13486848Y-12947984D02*
X13467801Y-12938460D01*
X13467801Y-12938460D02*
X13458277Y-12928936D01*
X13458277Y-12928936D02*
X13448753Y-12909888D01*
X13448753Y-12909888D02*
X13439229Y-12871793D01*
X13439229Y-12871793D02*
X13439229Y-12824174D01*
X13439229Y-12824174D02*
X13448753Y-12786079D01*
X13448753Y-12786079D02*
X13458277Y-12767031D01*
X13458277Y-12767031D02*
X13467801Y-12757508D01*
X13467801Y-12757508D02*
X13486848Y-12747984D01*
X13629706Y-12767031D02*
X13639229Y-12757508D01*
X13639229Y-12757508D02*
X13658277Y-12747984D01*
X13658277Y-12747984D02*
X13705896Y-12747984D01*
X13705896Y-12747984D02*
X13724944Y-12757508D01*
X13724944Y-12757508D02*
X13734467Y-12767031D01*
X13734467Y-12767031D02*
X13743991Y-12786079D01*
X13743991Y-12786079D02*
X13743991Y-12805127D01*
X13743991Y-12805127D02*
X13734467Y-12833698D01*
X13734467Y-12833698D02*
X13620182Y-12947984D01*
X13620182Y-12947984D02*
X13743991Y-12947984D01*
X13810658Y-12747984D02*
X13934467Y-12747984D01*
X13934467Y-12747984D02*
X13867801Y-12824174D01*
X13867801Y-12824174D02*
X13896372Y-12824174D01*
X13896372Y-12824174D02*
X13915420Y-12833698D01*
X13915420Y-12833698D02*
X13924944Y-12843222D01*
X13924944Y-12843222D02*
X13934467Y-12862269D01*
X13934467Y-12862269D02*
X13934467Y-12909888D01*
X13934467Y-12909888D02*
X13924944Y-12928936D01*
X13924944Y-12928936D02*
X13915420Y-12938460D01*
X13915420Y-12938460D02*
X13896372Y-12947984D01*
X13896372Y-12947984D02*
X13839229Y-12947984D01*
X13839229Y-12947984D02*
X13820182Y-12938460D01*
X13820182Y-12938460D02*
X13810658Y-12928936D01*
X14105896Y-12747984D02*
X14067801Y-12747984D01*
X14067801Y-12747984D02*
X14048753Y-12757508D01*
X14048753Y-12757508D02*
X14039229Y-12767031D01*
X14039229Y-12767031D02*
X14020182Y-12795603D01*
X14020182Y-12795603D02*
X14010658Y-12833698D01*
X14010658Y-12833698D02*
X14010658Y-12909888D01*
X14010658Y-12909888D02*
X14020182Y-12928936D01*
X14020182Y-12928936D02*
X14029706Y-12938460D01*
X14029706Y-12938460D02*
X14048753Y-12947984D01*
X14048753Y-12947984D02*
X14086848Y-12947984D01*
X14086848Y-12947984D02*
X14105896Y-12938460D01*
X14105896Y-12938460D02*
X14115420Y-12928936D01*
X14115420Y-12928936D02*
X14124944Y-12909888D01*
X14124944Y-12909888D02*
X14124944Y-12862269D01*
X14124944Y-12862269D02*
X14115420Y-12843222D01*
X14115420Y-12843222D02*
X14105896Y-12833698D01*
X14105896Y-12833698D02*
X14086848Y-12824174D01*
X14086848Y-12824174D02*
X14048753Y-12824174D01*
X14048753Y-12824174D02*
X14029706Y-12833698D01*
X14029706Y-12833698D02*
X14020182Y-12843222D01*
X14020182Y-12843222D02*
X14010658Y-12862269D01*
X14201134Y-12747984D02*
X14201134Y-12786079D01*
X14277325Y-12747984D02*
X14277325Y-12786079D01*
X14572563Y-13024174D02*
X14563039Y-13014650D01*
X14563039Y-13014650D02*
X14543991Y-12986079D01*
X14543991Y-12986079D02*
X14534468Y-12967031D01*
X14534468Y-12967031D02*
X14524944Y-12938460D01*
X14524944Y-12938460D02*
X14515420Y-12890841D01*
X14515420Y-12890841D02*
X14515420Y-12852746D01*
X14515420Y-12852746D02*
X14524944Y-12805127D01*
X14524944Y-12805127D02*
X14534468Y-12776555D01*
X14534468Y-12776555D02*
X14543991Y-12757508D01*
X14543991Y-12757508D02*
X14563039Y-12728936D01*
X14563039Y-12728936D02*
X14572563Y-12719412D01*
X14734468Y-12814650D02*
X14734468Y-12947984D01*
X14686848Y-12738460D02*
X14639229Y-12881317D01*
X14639229Y-12881317D02*
X14763039Y-12881317D01*
X14991610Y-12947984D02*
X14991610Y-12747984D01*
X15077325Y-12947984D02*
X15077325Y-12843222D01*
X15077325Y-12843222D02*
X15067801Y-12824174D01*
X15067801Y-12824174D02*
X15048753Y-12814650D01*
X15048753Y-12814650D02*
X15020182Y-12814650D01*
X15020182Y-12814650D02*
X15001134Y-12824174D01*
X15001134Y-12824174D02*
X14991610Y-12833698D01*
X15201134Y-12947984D02*
X15182087Y-12938460D01*
X15182087Y-12938460D02*
X15172563Y-12928936D01*
X15172563Y-12928936D02*
X15163039Y-12909888D01*
X15163039Y-12909888D02*
X15163039Y-12852746D01*
X15163039Y-12852746D02*
X15172563Y-12833698D01*
X15172563Y-12833698D02*
X15182087Y-12824174D01*
X15182087Y-12824174D02*
X15201134Y-12814650D01*
X15201134Y-12814650D02*
X15229706Y-12814650D01*
X15229706Y-12814650D02*
X15248753Y-12824174D01*
X15248753Y-12824174D02*
X15258277Y-12833698D01*
X15258277Y-12833698D02*
X15267801Y-12852746D01*
X15267801Y-12852746D02*
X15267801Y-12909888D01*
X15267801Y-12909888D02*
X15258277Y-12928936D01*
X15258277Y-12928936D02*
X15248753Y-12938460D01*
X15248753Y-12938460D02*
X15229706Y-12947984D01*
X15229706Y-12947984D02*
X15201134Y-12947984D01*
X15382087Y-12947984D02*
X15363039Y-12938460D01*
X15363039Y-12938460D02*
X15353515Y-12919412D01*
X15353515Y-12919412D02*
X15353515Y-12747984D01*
X15534468Y-12938460D02*
X15515420Y-12947984D01*
X15515420Y-12947984D02*
X15477325Y-12947984D01*
X15477325Y-12947984D02*
X15458277Y-12938460D01*
X15458277Y-12938460D02*
X15448753Y-12919412D01*
X15448753Y-12919412D02*
X15448753Y-12843222D01*
X15448753Y-12843222D02*
X15458277Y-12824174D01*
X15458277Y-12824174D02*
X15477325Y-12814650D01*
X15477325Y-12814650D02*
X15515420Y-12814650D01*
X15515420Y-12814650D02*
X15534468Y-12824174D01*
X15534468Y-12824174D02*
X15543991Y-12843222D01*
X15543991Y-12843222D02*
X15543991Y-12862269D01*
X15543991Y-12862269D02*
X15448753Y-12881317D01*
X15620182Y-12938460D02*
X15639230Y-12947984D01*
X15639230Y-12947984D02*
X15677325Y-12947984D01*
X15677325Y-12947984D02*
X15696372Y-12938460D01*
X15696372Y-12938460D02*
X15705896Y-12919412D01*
X15705896Y-12919412D02*
X15705896Y-12909888D01*
X15705896Y-12909888D02*
X15696372Y-12890841D01*
X15696372Y-12890841D02*
X15677325Y-12881317D01*
X15677325Y-12881317D02*
X15648753Y-12881317D01*
X15648753Y-12881317D02*
X15629706Y-12871793D01*
X15629706Y-12871793D02*
X15620182Y-12852746D01*
X15620182Y-12852746D02*
X15620182Y-12843222D01*
X15620182Y-12843222D02*
X15629706Y-12824174D01*
X15629706Y-12824174D02*
X15648753Y-12814650D01*
X15648753Y-12814650D02*
X15677325Y-12814650D01*
X15677325Y-12814650D02*
X15696372Y-12824174D01*
X15772563Y-13024174D02*
X15782087Y-13014650D01*
X15782087Y-13014650D02*
X15801134Y-12986079D01*
X15801134Y-12986079D02*
X15810658Y-12967031D01*
X15810658Y-12967031D02*
X15820182Y-12938460D01*
X15820182Y-12938460D02*
X15829706Y-12890841D01*
X15829706Y-12890841D02*
X15829706Y-12852746D01*
X15829706Y-12852746D02*
X15820182Y-12805127D01*
X15820182Y-12805127D02*
X15810658Y-12776555D01*
X15810658Y-12776555D02*
X15801134Y-12757508D01*
X15801134Y-12757508D02*
X15782087Y-12728936D01*
X15782087Y-12728936D02*
X15772563Y-12719412D01*
D12*
X10962500Y-13085500D02*
X10962500Y-13155500D01*
X10927500Y-13120500D02*
X10997500Y-13120500D01*
D11*
X11296372Y-13011984D02*
X11315420Y-13011984D01*
X11315420Y-13011984D02*
X11334467Y-13021508D01*
X11334467Y-13021508D02*
X11343991Y-13031031D01*
X11343991Y-13031031D02*
X11353515Y-13050079D01*
X11353515Y-13050079D02*
X11363039Y-13088174D01*
X11363039Y-13088174D02*
X11363039Y-13135793D01*
X11363039Y-13135793D02*
X11353515Y-13173888D01*
X11353515Y-13173888D02*
X11343991Y-13192936D01*
X11343991Y-13192936D02*
X11334467Y-13202460D01*
X11334467Y-13202460D02*
X11315420Y-13211984D01*
X11315420Y-13211984D02*
X11296372Y-13211984D01*
X11296372Y-13211984D02*
X11277324Y-13202460D01*
X11277324Y-13202460D02*
X11267801Y-13192936D01*
X11267801Y-13192936D02*
X11258277Y-13173888D01*
X11258277Y-13173888D02*
X11248753Y-13135793D01*
X11248753Y-13135793D02*
X11248753Y-13088174D01*
X11248753Y-13088174D02*
X11258277Y-13050079D01*
X11258277Y-13050079D02*
X11267801Y-13031031D01*
X11267801Y-13031031D02*
X11277324Y-13021508D01*
X11277324Y-13021508D02*
X11296372Y-13011984D01*
X11448753Y-13192936D02*
X11458277Y-13202460D01*
X11458277Y-13202460D02*
X11448753Y-13211984D01*
X11448753Y-13211984D02*
X11439229Y-13202460D01*
X11439229Y-13202460D02*
X11448753Y-13192936D01*
X11448753Y-13192936D02*
X11448753Y-13211984D01*
X11524943Y-13011984D02*
X11658277Y-13011984D01*
X11658277Y-13011984D02*
X11572562Y-13211984D01*
X11772562Y-13011984D02*
X11791610Y-13011984D01*
X11791610Y-13011984D02*
X11810658Y-13021508D01*
X11810658Y-13021508D02*
X11820182Y-13031031D01*
X11820182Y-13031031D02*
X11829705Y-13050079D01*
X11829705Y-13050079D02*
X11839229Y-13088174D01*
X11839229Y-13088174D02*
X11839229Y-13135793D01*
X11839229Y-13135793D02*
X11829705Y-13173888D01*
X11829705Y-13173888D02*
X11820182Y-13192936D01*
X11820182Y-13192936D02*
X11810658Y-13202460D01*
X11810658Y-13202460D02*
X11791610Y-13211984D01*
X11791610Y-13211984D02*
X11772562Y-13211984D01*
X11772562Y-13211984D02*
X11753515Y-13202460D01*
X11753515Y-13202460D02*
X11743991Y-13192936D01*
X11743991Y-13192936D02*
X11734467Y-13173888D01*
X11734467Y-13173888D02*
X11724943Y-13135793D01*
X11724943Y-13135793D02*
X11724943Y-13088174D01*
X11724943Y-13088174D02*
X11734467Y-13050079D01*
X11734467Y-13050079D02*
X11743991Y-13031031D01*
X11743991Y-13031031D02*
X11753515Y-13021508D01*
X11753515Y-13021508D02*
X11772562Y-13011984D01*
X11963039Y-13011984D02*
X11982086Y-13011984D01*
X11982086Y-13011984D02*
X12001134Y-13021508D01*
X12001134Y-13021508D02*
X12010658Y-13031031D01*
X12010658Y-13031031D02*
X12020182Y-13050079D01*
X12020182Y-13050079D02*
X12029705Y-13088174D01*
X12029705Y-13088174D02*
X12029705Y-13135793D01*
X12029705Y-13135793D02*
X12020182Y-13173888D01*
X12020182Y-13173888D02*
X12010658Y-13192936D01*
X12010658Y-13192936D02*
X12001134Y-13202460D01*
X12001134Y-13202460D02*
X11982086Y-13211984D01*
X11982086Y-13211984D02*
X11963039Y-13211984D01*
X11963039Y-13211984D02*
X11943991Y-13202460D01*
X11943991Y-13202460D02*
X11934467Y-13192936D01*
X11934467Y-13192936D02*
X11924943Y-13173888D01*
X11924943Y-13173888D02*
X11915420Y-13135793D01*
X11915420Y-13135793D02*
X11915420Y-13088174D01*
X11915420Y-13088174D02*
X11924943Y-13050079D01*
X11924943Y-13050079D02*
X11934467Y-13031031D01*
X11934467Y-13031031D02*
X11943991Y-13021508D01*
X11943991Y-13021508D02*
X11963039Y-13011984D01*
X12115420Y-13211984D02*
X12115420Y-13078650D01*
X12115420Y-13097698D02*
X12124943Y-13088174D01*
X12124943Y-13088174D02*
X12143991Y-13078650D01*
X12143991Y-13078650D02*
X12172563Y-13078650D01*
X12172563Y-13078650D02*
X12191610Y-13088174D01*
X12191610Y-13088174D02*
X12201134Y-13107222D01*
X12201134Y-13107222D02*
X12201134Y-13211984D01*
X12201134Y-13107222D02*
X12210658Y-13088174D01*
X12210658Y-13088174D02*
X12229705Y-13078650D01*
X12229705Y-13078650D02*
X12258277Y-13078650D01*
X12258277Y-13078650D02*
X12277324Y-13088174D01*
X12277324Y-13088174D02*
X12286848Y-13107222D01*
X12286848Y-13107222D02*
X12286848Y-13211984D01*
X12382086Y-13211984D02*
X12382086Y-13078650D01*
X12382086Y-13097698D02*
X12391610Y-13088174D01*
X12391610Y-13088174D02*
X12410658Y-13078650D01*
X12410658Y-13078650D02*
X12439229Y-13078650D01*
X12439229Y-13078650D02*
X12458277Y-13088174D01*
X12458277Y-13088174D02*
X12467801Y-13107222D01*
X12467801Y-13107222D02*
X12467801Y-13211984D01*
X12467801Y-13107222D02*
X12477324Y-13088174D01*
X12477324Y-13088174D02*
X12496372Y-13078650D01*
X12496372Y-13078650D02*
X12524943Y-13078650D01*
X12524943Y-13078650D02*
X12543991Y-13088174D01*
X12543991Y-13088174D02*
X12553515Y-13107222D01*
X12553515Y-13107222D02*
X12553515Y-13211984D01*
X12943991Y-13002460D02*
X12772563Y-13259603D01*
X13201134Y-13011984D02*
X13220182Y-13011984D01*
X13220182Y-13011984D02*
X13239229Y-13021508D01*
X13239229Y-13021508D02*
X13248753Y-13031031D01*
X13248753Y-13031031D02*
X13258277Y-13050079D01*
X13258277Y-13050079D02*
X13267801Y-13088174D01*
X13267801Y-13088174D02*
X13267801Y-13135793D01*
X13267801Y-13135793D02*
X13258277Y-13173888D01*
X13258277Y-13173888D02*
X13248753Y-13192936D01*
X13248753Y-13192936D02*
X13239229Y-13202460D01*
X13239229Y-13202460D02*
X13220182Y-13211984D01*
X13220182Y-13211984D02*
X13201134Y-13211984D01*
X13201134Y-13211984D02*
X13182086Y-13202460D01*
X13182086Y-13202460D02*
X13172563Y-13192936D01*
X13172563Y-13192936D02*
X13163039Y-13173888D01*
X13163039Y-13173888D02*
X13153515Y-13135793D01*
X13153515Y-13135793D02*
X13153515Y-13088174D01*
X13153515Y-13088174D02*
X13163039Y-13050079D01*
X13163039Y-13050079D02*
X13172563Y-13031031D01*
X13172563Y-13031031D02*
X13182086Y-13021508D01*
X13182086Y-13021508D02*
X13201134Y-13011984D01*
X13353515Y-13192936D02*
X13363039Y-13202460D01*
X13363039Y-13202460D02*
X13353515Y-13211984D01*
X13353515Y-13211984D02*
X13343991Y-13202460D01*
X13343991Y-13202460D02*
X13353515Y-13192936D01*
X13353515Y-13192936D02*
X13353515Y-13211984D01*
X13486848Y-13011984D02*
X13505896Y-13011984D01*
X13505896Y-13011984D02*
X13524944Y-13021508D01*
X13524944Y-13021508D02*
X13534467Y-13031031D01*
X13534467Y-13031031D02*
X13543991Y-13050079D01*
X13543991Y-13050079D02*
X13553515Y-13088174D01*
X13553515Y-13088174D02*
X13553515Y-13135793D01*
X13553515Y-13135793D02*
X13543991Y-13173888D01*
X13543991Y-13173888D02*
X13534467Y-13192936D01*
X13534467Y-13192936D02*
X13524944Y-13202460D01*
X13524944Y-13202460D02*
X13505896Y-13211984D01*
X13505896Y-13211984D02*
X13486848Y-13211984D01*
X13486848Y-13211984D02*
X13467801Y-13202460D01*
X13467801Y-13202460D02*
X13458277Y-13192936D01*
X13458277Y-13192936D02*
X13448753Y-13173888D01*
X13448753Y-13173888D02*
X13439229Y-13135793D01*
X13439229Y-13135793D02*
X13439229Y-13088174D01*
X13439229Y-13088174D02*
X13448753Y-13050079D01*
X13448753Y-13050079D02*
X13458277Y-13031031D01*
X13458277Y-13031031D02*
X13467801Y-13021508D01*
X13467801Y-13021508D02*
X13486848Y-13011984D01*
X13629706Y-13031031D02*
X13639229Y-13021508D01*
X13639229Y-13021508D02*
X13658277Y-13011984D01*
X13658277Y-13011984D02*
X13705896Y-13011984D01*
X13705896Y-13011984D02*
X13724944Y-13021508D01*
X13724944Y-13021508D02*
X13734467Y-13031031D01*
X13734467Y-13031031D02*
X13743991Y-13050079D01*
X13743991Y-13050079D02*
X13743991Y-13069127D01*
X13743991Y-13069127D02*
X13734467Y-13097698D01*
X13734467Y-13097698D02*
X13620182Y-13211984D01*
X13620182Y-13211984D02*
X13743991Y-13211984D01*
X13810658Y-13011984D02*
X13943991Y-13011984D01*
X13943991Y-13011984D02*
X13858277Y-13211984D01*
X14105896Y-13011984D02*
X14067801Y-13011984D01*
X14067801Y-13011984D02*
X14048753Y-13021508D01*
X14048753Y-13021508D02*
X14039229Y-13031031D01*
X14039229Y-13031031D02*
X14020182Y-13059603D01*
X14020182Y-13059603D02*
X14010658Y-13097698D01*
X14010658Y-13097698D02*
X14010658Y-13173888D01*
X14010658Y-13173888D02*
X14020182Y-13192936D01*
X14020182Y-13192936D02*
X14029706Y-13202460D01*
X14029706Y-13202460D02*
X14048753Y-13211984D01*
X14048753Y-13211984D02*
X14086848Y-13211984D01*
X14086848Y-13211984D02*
X14105896Y-13202460D01*
X14105896Y-13202460D02*
X14115420Y-13192936D01*
X14115420Y-13192936D02*
X14124944Y-13173888D01*
X14124944Y-13173888D02*
X14124944Y-13126269D01*
X14124944Y-13126269D02*
X14115420Y-13107222D01*
X14115420Y-13107222D02*
X14105896Y-13097698D01*
X14105896Y-13097698D02*
X14086848Y-13088174D01*
X14086848Y-13088174D02*
X14048753Y-13088174D01*
X14048753Y-13088174D02*
X14029706Y-13097698D01*
X14029706Y-13097698D02*
X14020182Y-13107222D01*
X14020182Y-13107222D02*
X14010658Y-13126269D01*
X14201134Y-13011984D02*
X14201134Y-13050079D01*
X14277325Y-13011984D02*
X14277325Y-13050079D01*
X14572563Y-13288174D02*
X14563039Y-13278650D01*
X14563039Y-13278650D02*
X14543991Y-13250079D01*
X14543991Y-13250079D02*
X14534468Y-13231031D01*
X14534468Y-13231031D02*
X14524944Y-13202460D01*
X14524944Y-13202460D02*
X14515420Y-13154841D01*
X14515420Y-13154841D02*
X14515420Y-13116746D01*
X14515420Y-13116746D02*
X14524944Y-13069127D01*
X14524944Y-13069127D02*
X14534468Y-13040555D01*
X14534468Y-13040555D02*
X14543991Y-13021508D01*
X14543991Y-13021508D02*
X14563039Y-12992936D01*
X14563039Y-12992936D02*
X14572563Y-12983412D01*
X14677325Y-13097698D02*
X14658277Y-13088174D01*
X14658277Y-13088174D02*
X14648753Y-13078650D01*
X14648753Y-13078650D02*
X14639229Y-13059603D01*
X14639229Y-13059603D02*
X14639229Y-13050079D01*
X14639229Y-13050079D02*
X14648753Y-13031031D01*
X14648753Y-13031031D02*
X14658277Y-13021508D01*
X14658277Y-13021508D02*
X14677325Y-13011984D01*
X14677325Y-13011984D02*
X14715420Y-13011984D01*
X14715420Y-13011984D02*
X14734468Y-13021508D01*
X14734468Y-13021508D02*
X14743991Y-13031031D01*
X14743991Y-13031031D02*
X14753515Y-13050079D01*
X14753515Y-13050079D02*
X14753515Y-13059603D01*
X14753515Y-13059603D02*
X14743991Y-13078650D01*
X14743991Y-13078650D02*
X14734468Y-13088174D01*
X14734468Y-13088174D02*
X14715420Y-13097698D01*
X14715420Y-13097698D02*
X14677325Y-13097698D01*
X14677325Y-13097698D02*
X14658277Y-13107222D01*
X14658277Y-13107222D02*
X14648753Y-13116746D01*
X14648753Y-13116746D02*
X14639229Y-13135793D01*
X14639229Y-13135793D02*
X14639229Y-13173888D01*
X14639229Y-13173888D02*
X14648753Y-13192936D01*
X14648753Y-13192936D02*
X14658277Y-13202460D01*
X14658277Y-13202460D02*
X14677325Y-13211984D01*
X14677325Y-13211984D02*
X14715420Y-13211984D01*
X14715420Y-13211984D02*
X14734468Y-13202460D01*
X14734468Y-13202460D02*
X14743991Y-13192936D01*
X14743991Y-13192936D02*
X14753515Y-13173888D01*
X14753515Y-13173888D02*
X14753515Y-13135793D01*
X14753515Y-13135793D02*
X14743991Y-13116746D01*
X14743991Y-13116746D02*
X14734468Y-13107222D01*
X14734468Y-13107222D02*
X14715420Y-13097698D01*
X14991610Y-13211984D02*
X14991610Y-13011984D01*
X15077325Y-13211984D02*
X15077325Y-13107222D01*
X15077325Y-13107222D02*
X15067801Y-13088174D01*
X15067801Y-13088174D02*
X15048753Y-13078650D01*
X15048753Y-13078650D02*
X15020182Y-13078650D01*
X15020182Y-13078650D02*
X15001134Y-13088174D01*
X15001134Y-13088174D02*
X14991610Y-13097698D01*
X15201134Y-13211984D02*
X15182087Y-13202460D01*
X15182087Y-13202460D02*
X15172563Y-13192936D01*
X15172563Y-13192936D02*
X15163039Y-13173888D01*
X15163039Y-13173888D02*
X15163039Y-13116746D01*
X15163039Y-13116746D02*
X15172563Y-13097698D01*
X15172563Y-13097698D02*
X15182087Y-13088174D01*
X15182087Y-13088174D02*
X15201134Y-13078650D01*
X15201134Y-13078650D02*
X15229706Y-13078650D01*
X15229706Y-13078650D02*
X15248753Y-13088174D01*
X15248753Y-13088174D02*
X15258277Y-13097698D01*
X15258277Y-13097698D02*
X15267801Y-13116746D01*
X15267801Y-13116746D02*
X15267801Y-13173888D01*
X15267801Y-13173888D02*
X15258277Y-13192936D01*
X15258277Y-13192936D02*
X15248753Y-13202460D01*
X15248753Y-13202460D02*
X15229706Y-13211984D01*
X15229706Y-13211984D02*
X15201134Y-13211984D01*
X15382087Y-13211984D02*
X15363039Y-13202460D01*
X15363039Y-13202460D02*
X15353515Y-13183412D01*
X15353515Y-13183412D02*
X15353515Y-13011984D01*
X15534468Y-13202460D02*
X15515420Y-13211984D01*
X15515420Y-13211984D02*
X15477325Y-13211984D01*
X15477325Y-13211984D02*
X15458277Y-13202460D01*
X15458277Y-13202460D02*
X15448753Y-13183412D01*
X15448753Y-13183412D02*
X15448753Y-13107222D01*
X15448753Y-13107222D02*
X15458277Y-13088174D01*
X15458277Y-13088174D02*
X15477325Y-13078650D01*
X15477325Y-13078650D02*
X15515420Y-13078650D01*
X15515420Y-13078650D02*
X15534468Y-13088174D01*
X15534468Y-13088174D02*
X15543991Y-13107222D01*
X15543991Y-13107222D02*
X15543991Y-13126269D01*
X15543991Y-13126269D02*
X15448753Y-13145317D01*
X15620182Y-13202460D02*
X15639230Y-13211984D01*
X15639230Y-13211984D02*
X15677325Y-13211984D01*
X15677325Y-13211984D02*
X15696372Y-13202460D01*
X15696372Y-13202460D02*
X15705896Y-13183412D01*
X15705896Y-13183412D02*
X15705896Y-13173888D01*
X15705896Y-13173888D02*
X15696372Y-13154841D01*
X15696372Y-13154841D02*
X15677325Y-13145317D01*
X15677325Y-13145317D02*
X15648753Y-13145317D01*
X15648753Y-13145317D02*
X15629706Y-13135793D01*
X15629706Y-13135793D02*
X15620182Y-13116746D01*
X15620182Y-13116746D02*
X15620182Y-13107222D01*
X15620182Y-13107222D02*
X15629706Y-13088174D01*
X15629706Y-13088174D02*
X15648753Y-13078650D01*
X15648753Y-13078650D02*
X15677325Y-13078650D01*
X15677325Y-13078650D02*
X15696372Y-13088174D01*
X15772563Y-13288174D02*
X15782087Y-13278650D01*
X15782087Y-13278650D02*
X15801134Y-13250079D01*
X15801134Y-13250079D02*
X15810658Y-13231031D01*
X15810658Y-13231031D02*
X15820182Y-13202460D01*
X15820182Y-13202460D02*
X15829706Y-13154841D01*
X15829706Y-13154841D02*
X15829706Y-13116746D01*
X15829706Y-13116746D02*
X15820182Y-13069127D01*
X15820182Y-13069127D02*
X15810658Y-13040555D01*
X15810658Y-13040555D02*
X15801134Y-13021508D01*
X15801134Y-13021508D02*
X15782087Y-12992936D01*
X15782087Y-12992936D02*
X15772563Y-12983412D01*
D12*
X10986341Y-13411441D02*
X10986341Y-13357559D01*
X10932459Y-13357559D01*
X10932459Y-13411441D01*
X10986341Y-13411441D01*
D11*
X11296372Y-13275984D02*
X11315420Y-13275984D01*
X11315420Y-13275984D02*
X11334467Y-13285508D01*
X11334467Y-13285508D02*
X11343991Y-13295031D01*
X11343991Y-13295031D02*
X11353515Y-13314079D01*
X11353515Y-13314079D02*
X11363039Y-13352174D01*
X11363039Y-13352174D02*
X11363039Y-13399793D01*
X11363039Y-13399793D02*
X11353515Y-13437888D01*
X11353515Y-13437888D02*
X11343991Y-13456936D01*
X11343991Y-13456936D02*
X11334467Y-13466460D01*
X11334467Y-13466460D02*
X11315420Y-13475984D01*
X11315420Y-13475984D02*
X11296372Y-13475984D01*
X11296372Y-13475984D02*
X11277324Y-13466460D01*
X11277324Y-13466460D02*
X11267801Y-13456936D01*
X11267801Y-13456936D02*
X11258277Y-13437888D01*
X11258277Y-13437888D02*
X11248753Y-13399793D01*
X11248753Y-13399793D02*
X11248753Y-13352174D01*
X11248753Y-13352174D02*
X11258277Y-13314079D01*
X11258277Y-13314079D02*
X11267801Y-13295031D01*
X11267801Y-13295031D02*
X11277324Y-13285508D01*
X11277324Y-13285508D02*
X11296372Y-13275984D01*
X11448753Y-13456936D02*
X11458277Y-13466460D01*
X11458277Y-13466460D02*
X11448753Y-13475984D01*
X11448753Y-13475984D02*
X11439229Y-13466460D01*
X11439229Y-13466460D02*
X11448753Y-13456936D01*
X11448753Y-13456936D02*
X11448753Y-13475984D01*
X11524943Y-13275984D02*
X11658277Y-13275984D01*
X11658277Y-13275984D02*
X11572562Y-13475984D01*
X11820182Y-13275984D02*
X11782086Y-13275984D01*
X11782086Y-13275984D02*
X11763039Y-13285508D01*
X11763039Y-13285508D02*
X11753515Y-13295031D01*
X11753515Y-13295031D02*
X11734467Y-13323603D01*
X11734467Y-13323603D02*
X11724943Y-13361698D01*
X11724943Y-13361698D02*
X11724943Y-13437888D01*
X11724943Y-13437888D02*
X11734467Y-13456936D01*
X11734467Y-13456936D02*
X11743991Y-13466460D01*
X11743991Y-13466460D02*
X11763039Y-13475984D01*
X11763039Y-13475984D02*
X11801134Y-13475984D01*
X11801134Y-13475984D02*
X11820182Y-13466460D01*
X11820182Y-13466460D02*
X11829705Y-13456936D01*
X11829705Y-13456936D02*
X11839229Y-13437888D01*
X11839229Y-13437888D02*
X11839229Y-13390269D01*
X11839229Y-13390269D02*
X11829705Y-13371222D01*
X11829705Y-13371222D02*
X11820182Y-13361698D01*
X11820182Y-13361698D02*
X11801134Y-13352174D01*
X11801134Y-13352174D02*
X11763039Y-13352174D01*
X11763039Y-13352174D02*
X11743991Y-13361698D01*
X11743991Y-13361698D02*
X11734467Y-13371222D01*
X11734467Y-13371222D02*
X11724943Y-13390269D01*
X11915420Y-13295031D02*
X11924943Y-13285508D01*
X11924943Y-13285508D02*
X11943991Y-13275984D01*
X11943991Y-13275984D02*
X11991610Y-13275984D01*
X11991610Y-13275984D02*
X12010658Y-13285508D01*
X12010658Y-13285508D02*
X12020182Y-13295031D01*
X12020182Y-13295031D02*
X12029705Y-13314079D01*
X12029705Y-13314079D02*
X12029705Y-13333127D01*
X12029705Y-13333127D02*
X12020182Y-13361698D01*
X12020182Y-13361698D02*
X11905896Y-13475984D01*
X11905896Y-13475984D02*
X12029705Y-13475984D01*
X12115420Y-13475984D02*
X12115420Y-13342650D01*
X12115420Y-13361698D02*
X12124943Y-13352174D01*
X12124943Y-13352174D02*
X12143991Y-13342650D01*
X12143991Y-13342650D02*
X12172563Y-13342650D01*
X12172563Y-13342650D02*
X12191610Y-13352174D01*
X12191610Y-13352174D02*
X12201134Y-13371222D01*
X12201134Y-13371222D02*
X12201134Y-13475984D01*
X12201134Y-13371222D02*
X12210658Y-13352174D01*
X12210658Y-13352174D02*
X12229705Y-13342650D01*
X12229705Y-13342650D02*
X12258277Y-13342650D01*
X12258277Y-13342650D02*
X12277324Y-13352174D01*
X12277324Y-13352174D02*
X12286848Y-13371222D01*
X12286848Y-13371222D02*
X12286848Y-13475984D01*
X12382086Y-13475984D02*
X12382086Y-13342650D01*
X12382086Y-13361698D02*
X12391610Y-13352174D01*
X12391610Y-13352174D02*
X12410658Y-13342650D01*
X12410658Y-13342650D02*
X12439229Y-13342650D01*
X12439229Y-13342650D02*
X12458277Y-13352174D01*
X12458277Y-13352174D02*
X12467801Y-13371222D01*
X12467801Y-13371222D02*
X12467801Y-13475984D01*
X12467801Y-13371222D02*
X12477324Y-13352174D01*
X12477324Y-13352174D02*
X12496372Y-13342650D01*
X12496372Y-13342650D02*
X12524943Y-13342650D01*
X12524943Y-13342650D02*
X12543991Y-13352174D01*
X12543991Y-13352174D02*
X12553515Y-13371222D01*
X12553515Y-13371222D02*
X12553515Y-13475984D01*
X12943991Y-13266460D02*
X12772563Y-13523603D01*
X13201134Y-13275984D02*
X13220182Y-13275984D01*
X13220182Y-13275984D02*
X13239229Y-13285508D01*
X13239229Y-13285508D02*
X13248753Y-13295031D01*
X13248753Y-13295031D02*
X13258277Y-13314079D01*
X13258277Y-13314079D02*
X13267801Y-13352174D01*
X13267801Y-13352174D02*
X13267801Y-13399793D01*
X13267801Y-13399793D02*
X13258277Y-13437888D01*
X13258277Y-13437888D02*
X13248753Y-13456936D01*
X13248753Y-13456936D02*
X13239229Y-13466460D01*
X13239229Y-13466460D02*
X13220182Y-13475984D01*
X13220182Y-13475984D02*
X13201134Y-13475984D01*
X13201134Y-13475984D02*
X13182086Y-13466460D01*
X13182086Y-13466460D02*
X13172563Y-13456936D01*
X13172563Y-13456936D02*
X13163039Y-13437888D01*
X13163039Y-13437888D02*
X13153515Y-13399793D01*
X13153515Y-13399793D02*
X13153515Y-13352174D01*
X13153515Y-13352174D02*
X13163039Y-13314079D01*
X13163039Y-13314079D02*
X13172563Y-13295031D01*
X13172563Y-13295031D02*
X13182086Y-13285508D01*
X13182086Y-13285508D02*
X13201134Y-13275984D01*
X13353515Y-13456936D02*
X13363039Y-13466460D01*
X13363039Y-13466460D02*
X13353515Y-13475984D01*
X13353515Y-13475984D02*
X13343991Y-13466460D01*
X13343991Y-13466460D02*
X13353515Y-13456936D01*
X13353515Y-13456936D02*
X13353515Y-13475984D01*
X13486848Y-13275984D02*
X13505896Y-13275984D01*
X13505896Y-13275984D02*
X13524944Y-13285508D01*
X13524944Y-13285508D02*
X13534467Y-13295031D01*
X13534467Y-13295031D02*
X13543991Y-13314079D01*
X13543991Y-13314079D02*
X13553515Y-13352174D01*
X13553515Y-13352174D02*
X13553515Y-13399793D01*
X13553515Y-13399793D02*
X13543991Y-13437888D01*
X13543991Y-13437888D02*
X13534467Y-13456936D01*
X13534467Y-13456936D02*
X13524944Y-13466460D01*
X13524944Y-13466460D02*
X13505896Y-13475984D01*
X13505896Y-13475984D02*
X13486848Y-13475984D01*
X13486848Y-13475984D02*
X13467801Y-13466460D01*
X13467801Y-13466460D02*
X13458277Y-13456936D01*
X13458277Y-13456936D02*
X13448753Y-13437888D01*
X13448753Y-13437888D02*
X13439229Y-13399793D01*
X13439229Y-13399793D02*
X13439229Y-13352174D01*
X13439229Y-13352174D02*
X13448753Y-13314079D01*
X13448753Y-13314079D02*
X13458277Y-13295031D01*
X13458277Y-13295031D02*
X13467801Y-13285508D01*
X13467801Y-13285508D02*
X13486848Y-13275984D01*
X13620182Y-13275984D02*
X13743991Y-13275984D01*
X13743991Y-13275984D02*
X13677325Y-13352174D01*
X13677325Y-13352174D02*
X13705896Y-13352174D01*
X13705896Y-13352174D02*
X13724944Y-13361698D01*
X13724944Y-13361698D02*
X13734467Y-13371222D01*
X13734467Y-13371222D02*
X13743991Y-13390269D01*
X13743991Y-13390269D02*
X13743991Y-13437888D01*
X13743991Y-13437888D02*
X13734467Y-13456936D01*
X13734467Y-13456936D02*
X13724944Y-13466460D01*
X13724944Y-13466460D02*
X13705896Y-13475984D01*
X13705896Y-13475984D02*
X13648753Y-13475984D01*
X13648753Y-13475984D02*
X13629706Y-13466460D01*
X13629706Y-13466460D02*
X13620182Y-13456936D01*
X13867801Y-13275984D02*
X13886848Y-13275984D01*
X13886848Y-13275984D02*
X13905896Y-13285508D01*
X13905896Y-13285508D02*
X13915420Y-13295031D01*
X13915420Y-13295031D02*
X13924944Y-13314079D01*
X13924944Y-13314079D02*
X13934467Y-13352174D01*
X13934467Y-13352174D02*
X13934467Y-13399793D01*
X13934467Y-13399793D02*
X13924944Y-13437888D01*
X13924944Y-13437888D02*
X13915420Y-13456936D01*
X13915420Y-13456936D02*
X13905896Y-13466460D01*
X13905896Y-13466460D02*
X13886848Y-13475984D01*
X13886848Y-13475984D02*
X13867801Y-13475984D01*
X13867801Y-13475984D02*
X13848753Y-13466460D01*
X13848753Y-13466460D02*
X13839229Y-13456936D01*
X13839229Y-13456936D02*
X13829706Y-13437888D01*
X13829706Y-13437888D02*
X13820182Y-13399793D01*
X13820182Y-13399793D02*
X13820182Y-13352174D01*
X13820182Y-13352174D02*
X13829706Y-13314079D01*
X13829706Y-13314079D02*
X13839229Y-13295031D01*
X13839229Y-13295031D02*
X13848753Y-13285508D01*
X13848753Y-13285508D02*
X13867801Y-13275984D01*
X14058277Y-13275984D02*
X14077325Y-13275984D01*
X14077325Y-13275984D02*
X14096372Y-13285508D01*
X14096372Y-13285508D02*
X14105896Y-13295031D01*
X14105896Y-13295031D02*
X14115420Y-13314079D01*
X14115420Y-13314079D02*
X14124944Y-13352174D01*
X14124944Y-13352174D02*
X14124944Y-13399793D01*
X14124944Y-13399793D02*
X14115420Y-13437888D01*
X14115420Y-13437888D02*
X14105896Y-13456936D01*
X14105896Y-13456936D02*
X14096372Y-13466460D01*
X14096372Y-13466460D02*
X14077325Y-13475984D01*
X14077325Y-13475984D02*
X14058277Y-13475984D01*
X14058277Y-13475984D02*
X14039229Y-13466460D01*
X14039229Y-13466460D02*
X14029706Y-13456936D01*
X14029706Y-13456936D02*
X14020182Y-13437888D01*
X14020182Y-13437888D02*
X14010658Y-13399793D01*
X14010658Y-13399793D02*
X14010658Y-13352174D01*
X14010658Y-13352174D02*
X14020182Y-13314079D01*
X14020182Y-13314079D02*
X14029706Y-13295031D01*
X14029706Y-13295031D02*
X14039229Y-13285508D01*
X14039229Y-13285508D02*
X14058277Y-13275984D01*
X14201134Y-13275984D02*
X14201134Y-13314079D01*
X14277325Y-13275984D02*
X14277325Y-13314079D01*
X14572563Y-13552174D02*
X14563039Y-13542650D01*
X14563039Y-13542650D02*
X14543991Y-13514079D01*
X14543991Y-13514079D02*
X14534468Y-13495031D01*
X14534468Y-13495031D02*
X14524944Y-13466460D01*
X14524944Y-13466460D02*
X14515420Y-13418841D01*
X14515420Y-13418841D02*
X14515420Y-13380746D01*
X14515420Y-13380746D02*
X14524944Y-13333127D01*
X14524944Y-13333127D02*
X14534468Y-13304555D01*
X14534468Y-13304555D02*
X14543991Y-13285508D01*
X14543991Y-13285508D02*
X14563039Y-13256936D01*
X14563039Y-13256936D02*
X14572563Y-13247412D01*
X14677325Y-13361698D02*
X14658277Y-13352174D01*
X14658277Y-13352174D02*
X14648753Y-13342650D01*
X14648753Y-13342650D02*
X14639229Y-13323603D01*
X14639229Y-13323603D02*
X14639229Y-13314079D01*
X14639229Y-13314079D02*
X14648753Y-13295031D01*
X14648753Y-13295031D02*
X14658277Y-13285508D01*
X14658277Y-13285508D02*
X14677325Y-13275984D01*
X14677325Y-13275984D02*
X14715420Y-13275984D01*
X14715420Y-13275984D02*
X14734468Y-13285508D01*
X14734468Y-13285508D02*
X14743991Y-13295031D01*
X14743991Y-13295031D02*
X14753515Y-13314079D01*
X14753515Y-13314079D02*
X14753515Y-13323603D01*
X14753515Y-13323603D02*
X14743991Y-13342650D01*
X14743991Y-13342650D02*
X14734468Y-13352174D01*
X14734468Y-13352174D02*
X14715420Y-13361698D01*
X14715420Y-13361698D02*
X14677325Y-13361698D01*
X14677325Y-13361698D02*
X14658277Y-13371222D01*
X14658277Y-13371222D02*
X14648753Y-13380746D01*
X14648753Y-13380746D02*
X14639229Y-13399793D01*
X14639229Y-13399793D02*
X14639229Y-13437888D01*
X14639229Y-13437888D02*
X14648753Y-13456936D01*
X14648753Y-13456936D02*
X14658277Y-13466460D01*
X14658277Y-13466460D02*
X14677325Y-13475984D01*
X14677325Y-13475984D02*
X14715420Y-13475984D01*
X14715420Y-13475984D02*
X14734468Y-13466460D01*
X14734468Y-13466460D02*
X14743991Y-13456936D01*
X14743991Y-13456936D02*
X14753515Y-13437888D01*
X14753515Y-13437888D02*
X14753515Y-13399793D01*
X14753515Y-13399793D02*
X14743991Y-13380746D01*
X14743991Y-13380746D02*
X14734468Y-13371222D01*
X14734468Y-13371222D02*
X14715420Y-13361698D01*
X14991610Y-13475984D02*
X14991610Y-13275984D01*
X15077325Y-13475984D02*
X15077325Y-13371222D01*
X15077325Y-13371222D02*
X15067801Y-13352174D01*
X15067801Y-13352174D02*
X15048753Y-13342650D01*
X15048753Y-13342650D02*
X15020182Y-13342650D01*
X15020182Y-13342650D02*
X15001134Y-13352174D01*
X15001134Y-13352174D02*
X14991610Y-13361698D01*
X15201134Y-13475984D02*
X15182087Y-13466460D01*
X15182087Y-13466460D02*
X15172563Y-13456936D01*
X15172563Y-13456936D02*
X15163039Y-13437888D01*
X15163039Y-13437888D02*
X15163039Y-13380746D01*
X15163039Y-13380746D02*
X15172563Y-13361698D01*
X15172563Y-13361698D02*
X15182087Y-13352174D01*
X15182087Y-13352174D02*
X15201134Y-13342650D01*
X15201134Y-13342650D02*
X15229706Y-13342650D01*
X15229706Y-13342650D02*
X15248753Y-13352174D01*
X15248753Y-13352174D02*
X15258277Y-13361698D01*
X15258277Y-13361698D02*
X15267801Y-13380746D01*
X15267801Y-13380746D02*
X15267801Y-13437888D01*
X15267801Y-13437888D02*
X15258277Y-13456936D01*
X15258277Y-13456936D02*
X15248753Y-13466460D01*
X15248753Y-13466460D02*
X15229706Y-13475984D01*
X15229706Y-13475984D02*
X15201134Y-13475984D01*
X15382087Y-13475984D02*
X15363039Y-13466460D01*
X15363039Y-13466460D02*
X15353515Y-13447412D01*
X15353515Y-13447412D02*
X15353515Y-13275984D01*
X15534468Y-13466460D02*
X15515420Y-13475984D01*
X15515420Y-13475984D02*
X15477325Y-13475984D01*
X15477325Y-13475984D02*
X15458277Y-13466460D01*
X15458277Y-13466460D02*
X15448753Y-13447412D01*
X15448753Y-13447412D02*
X15448753Y-13371222D01*
X15448753Y-13371222D02*
X15458277Y-13352174D01*
X15458277Y-13352174D02*
X15477325Y-13342650D01*
X15477325Y-13342650D02*
X15515420Y-13342650D01*
X15515420Y-13342650D02*
X15534468Y-13352174D01*
X15534468Y-13352174D02*
X15543991Y-13371222D01*
X15543991Y-13371222D02*
X15543991Y-13390269D01*
X15543991Y-13390269D02*
X15448753Y-13409317D01*
X15620182Y-13466460D02*
X15639230Y-13475984D01*
X15639230Y-13475984D02*
X15677325Y-13475984D01*
X15677325Y-13475984D02*
X15696372Y-13466460D01*
X15696372Y-13466460D02*
X15705896Y-13447412D01*
X15705896Y-13447412D02*
X15705896Y-13437888D01*
X15705896Y-13437888D02*
X15696372Y-13418841D01*
X15696372Y-13418841D02*
X15677325Y-13409317D01*
X15677325Y-13409317D02*
X15648753Y-13409317D01*
X15648753Y-13409317D02*
X15629706Y-13399793D01*
X15629706Y-13399793D02*
X15620182Y-13380746D01*
X15620182Y-13380746D02*
X15620182Y-13371222D01*
X15620182Y-13371222D02*
X15629706Y-13352174D01*
X15629706Y-13352174D02*
X15648753Y-13342650D01*
X15648753Y-13342650D02*
X15677325Y-13342650D01*
X15677325Y-13342650D02*
X15696372Y-13352174D01*
X15772563Y-13552174D02*
X15782087Y-13542650D01*
X15782087Y-13542650D02*
X15801134Y-13514079D01*
X15801134Y-13514079D02*
X15810658Y-13495031D01*
X15810658Y-13495031D02*
X15820182Y-13466460D01*
X15820182Y-13466460D02*
X15829706Y-13418841D01*
X15829706Y-13418841D02*
X15829706Y-13380746D01*
X15829706Y-13380746D02*
X15820182Y-13333127D01*
X15820182Y-13333127D02*
X15810658Y-13304555D01*
X15810658Y-13304555D02*
X15801134Y-13285508D01*
X15801134Y-13285508D02*
X15782087Y-13256936D01*
X15782087Y-13256936D02*
X15772563Y-13247412D01*
D12*
X10957500Y-13688500D02*
X10997500Y-13648500D01*
X10957500Y-13608500D01*
X10917500Y-13648500D01*
X10957500Y-13688500D01*
D11*
X11296372Y-13539984D02*
X11315420Y-13539984D01*
X11315420Y-13539984D02*
X11334467Y-13549508D01*
X11334467Y-13549508D02*
X11343991Y-13559031D01*
X11343991Y-13559031D02*
X11353515Y-13578079D01*
X11353515Y-13578079D02*
X11363039Y-13616174D01*
X11363039Y-13616174D02*
X11363039Y-13663793D01*
X11363039Y-13663793D02*
X11353515Y-13701888D01*
X11353515Y-13701888D02*
X11343991Y-13720936D01*
X11343991Y-13720936D02*
X11334467Y-13730460D01*
X11334467Y-13730460D02*
X11315420Y-13739984D01*
X11315420Y-13739984D02*
X11296372Y-13739984D01*
X11296372Y-13739984D02*
X11277324Y-13730460D01*
X11277324Y-13730460D02*
X11267801Y-13720936D01*
X11267801Y-13720936D02*
X11258277Y-13701888D01*
X11258277Y-13701888D02*
X11248753Y-13663793D01*
X11248753Y-13663793D02*
X11248753Y-13616174D01*
X11248753Y-13616174D02*
X11258277Y-13578079D01*
X11258277Y-13578079D02*
X11267801Y-13559031D01*
X11267801Y-13559031D02*
X11277324Y-13549508D01*
X11277324Y-13549508D02*
X11296372Y-13539984D01*
X11448753Y-13720936D02*
X11458277Y-13730460D01*
X11458277Y-13730460D02*
X11448753Y-13739984D01*
X11448753Y-13739984D02*
X11439229Y-13730460D01*
X11439229Y-13730460D02*
X11448753Y-13720936D01*
X11448753Y-13720936D02*
X11448753Y-13739984D01*
X11572562Y-13625698D02*
X11553515Y-13616174D01*
X11553515Y-13616174D02*
X11543991Y-13606650D01*
X11543991Y-13606650D02*
X11534467Y-13587603D01*
X11534467Y-13587603D02*
X11534467Y-13578079D01*
X11534467Y-13578079D02*
X11543991Y-13559031D01*
X11543991Y-13559031D02*
X11553515Y-13549508D01*
X11553515Y-13549508D02*
X11572562Y-13539984D01*
X11572562Y-13539984D02*
X11610658Y-13539984D01*
X11610658Y-13539984D02*
X11629705Y-13549508D01*
X11629705Y-13549508D02*
X11639229Y-13559031D01*
X11639229Y-13559031D02*
X11648753Y-13578079D01*
X11648753Y-13578079D02*
X11648753Y-13587603D01*
X11648753Y-13587603D02*
X11639229Y-13606650D01*
X11639229Y-13606650D02*
X11629705Y-13616174D01*
X11629705Y-13616174D02*
X11610658Y-13625698D01*
X11610658Y-13625698D02*
X11572562Y-13625698D01*
X11572562Y-13625698D02*
X11553515Y-13635222D01*
X11553515Y-13635222D02*
X11543991Y-13644746D01*
X11543991Y-13644746D02*
X11534467Y-13663793D01*
X11534467Y-13663793D02*
X11534467Y-13701888D01*
X11534467Y-13701888D02*
X11543991Y-13720936D01*
X11543991Y-13720936D02*
X11553515Y-13730460D01*
X11553515Y-13730460D02*
X11572562Y-13739984D01*
X11572562Y-13739984D02*
X11610658Y-13739984D01*
X11610658Y-13739984D02*
X11629705Y-13730460D01*
X11629705Y-13730460D02*
X11639229Y-13720936D01*
X11639229Y-13720936D02*
X11648753Y-13701888D01*
X11648753Y-13701888D02*
X11648753Y-13663793D01*
X11648753Y-13663793D02*
X11639229Y-13644746D01*
X11639229Y-13644746D02*
X11629705Y-13635222D01*
X11629705Y-13635222D02*
X11610658Y-13625698D01*
X11772562Y-13539984D02*
X11791610Y-13539984D01*
X11791610Y-13539984D02*
X11810658Y-13549508D01*
X11810658Y-13549508D02*
X11820182Y-13559031D01*
X11820182Y-13559031D02*
X11829705Y-13578079D01*
X11829705Y-13578079D02*
X11839229Y-13616174D01*
X11839229Y-13616174D02*
X11839229Y-13663793D01*
X11839229Y-13663793D02*
X11829705Y-13701888D01*
X11829705Y-13701888D02*
X11820182Y-13720936D01*
X11820182Y-13720936D02*
X11810658Y-13730460D01*
X11810658Y-13730460D02*
X11791610Y-13739984D01*
X11791610Y-13739984D02*
X11772562Y-13739984D01*
X11772562Y-13739984D02*
X11753515Y-13730460D01*
X11753515Y-13730460D02*
X11743991Y-13720936D01*
X11743991Y-13720936D02*
X11734467Y-13701888D01*
X11734467Y-13701888D02*
X11724943Y-13663793D01*
X11724943Y-13663793D02*
X11724943Y-13616174D01*
X11724943Y-13616174D02*
X11734467Y-13578079D01*
X11734467Y-13578079D02*
X11743991Y-13559031D01*
X11743991Y-13559031D02*
X11753515Y-13549508D01*
X11753515Y-13549508D02*
X11772562Y-13539984D01*
X11963039Y-13539984D02*
X11982086Y-13539984D01*
X11982086Y-13539984D02*
X12001134Y-13549508D01*
X12001134Y-13549508D02*
X12010658Y-13559031D01*
X12010658Y-13559031D02*
X12020182Y-13578079D01*
X12020182Y-13578079D02*
X12029705Y-13616174D01*
X12029705Y-13616174D02*
X12029705Y-13663793D01*
X12029705Y-13663793D02*
X12020182Y-13701888D01*
X12020182Y-13701888D02*
X12010658Y-13720936D01*
X12010658Y-13720936D02*
X12001134Y-13730460D01*
X12001134Y-13730460D02*
X11982086Y-13739984D01*
X11982086Y-13739984D02*
X11963039Y-13739984D01*
X11963039Y-13739984D02*
X11943991Y-13730460D01*
X11943991Y-13730460D02*
X11934467Y-13720936D01*
X11934467Y-13720936D02*
X11924943Y-13701888D01*
X11924943Y-13701888D02*
X11915420Y-13663793D01*
X11915420Y-13663793D02*
X11915420Y-13616174D01*
X11915420Y-13616174D02*
X11924943Y-13578079D01*
X11924943Y-13578079D02*
X11934467Y-13559031D01*
X11934467Y-13559031D02*
X11943991Y-13549508D01*
X11943991Y-13549508D02*
X11963039Y-13539984D01*
X12115420Y-13739984D02*
X12115420Y-13606650D01*
X12115420Y-13625698D02*
X12124943Y-13616174D01*
X12124943Y-13616174D02*
X12143991Y-13606650D01*
X12143991Y-13606650D02*
X12172563Y-13606650D01*
X12172563Y-13606650D02*
X12191610Y-13616174D01*
X12191610Y-13616174D02*
X12201134Y-13635222D01*
X12201134Y-13635222D02*
X12201134Y-13739984D01*
X12201134Y-13635222D02*
X12210658Y-13616174D01*
X12210658Y-13616174D02*
X12229705Y-13606650D01*
X12229705Y-13606650D02*
X12258277Y-13606650D01*
X12258277Y-13606650D02*
X12277324Y-13616174D01*
X12277324Y-13616174D02*
X12286848Y-13635222D01*
X12286848Y-13635222D02*
X12286848Y-13739984D01*
X12382086Y-13739984D02*
X12382086Y-13606650D01*
X12382086Y-13625698D02*
X12391610Y-13616174D01*
X12391610Y-13616174D02*
X12410658Y-13606650D01*
X12410658Y-13606650D02*
X12439229Y-13606650D01*
X12439229Y-13606650D02*
X12458277Y-13616174D01*
X12458277Y-13616174D02*
X12467801Y-13635222D01*
X12467801Y-13635222D02*
X12467801Y-13739984D01*
X12467801Y-13635222D02*
X12477324Y-13616174D01*
X12477324Y-13616174D02*
X12496372Y-13606650D01*
X12496372Y-13606650D02*
X12524943Y-13606650D01*
X12524943Y-13606650D02*
X12543991Y-13616174D01*
X12543991Y-13616174D02*
X12553515Y-13635222D01*
X12553515Y-13635222D02*
X12553515Y-13739984D01*
X12943991Y-13530460D02*
X12772563Y-13787603D01*
X13201134Y-13539984D02*
X13220182Y-13539984D01*
X13220182Y-13539984D02*
X13239229Y-13549508D01*
X13239229Y-13549508D02*
X13248753Y-13559031D01*
X13248753Y-13559031D02*
X13258277Y-13578079D01*
X13258277Y-13578079D02*
X13267801Y-13616174D01*
X13267801Y-13616174D02*
X13267801Y-13663793D01*
X13267801Y-13663793D02*
X13258277Y-13701888D01*
X13258277Y-13701888D02*
X13248753Y-13720936D01*
X13248753Y-13720936D02*
X13239229Y-13730460D01*
X13239229Y-13730460D02*
X13220182Y-13739984D01*
X13220182Y-13739984D02*
X13201134Y-13739984D01*
X13201134Y-13739984D02*
X13182086Y-13730460D01*
X13182086Y-13730460D02*
X13172563Y-13720936D01*
X13172563Y-13720936D02*
X13163039Y-13701888D01*
X13163039Y-13701888D02*
X13153515Y-13663793D01*
X13153515Y-13663793D02*
X13153515Y-13616174D01*
X13153515Y-13616174D02*
X13163039Y-13578079D01*
X13163039Y-13578079D02*
X13172563Y-13559031D01*
X13172563Y-13559031D02*
X13182086Y-13549508D01*
X13182086Y-13549508D02*
X13201134Y-13539984D01*
X13353515Y-13720936D02*
X13363039Y-13730460D01*
X13363039Y-13730460D02*
X13353515Y-13739984D01*
X13353515Y-13739984D02*
X13343991Y-13730460D01*
X13343991Y-13730460D02*
X13353515Y-13720936D01*
X13353515Y-13720936D02*
X13353515Y-13739984D01*
X13486848Y-13539984D02*
X13505896Y-13539984D01*
X13505896Y-13539984D02*
X13524944Y-13549508D01*
X13524944Y-13549508D02*
X13534467Y-13559031D01*
X13534467Y-13559031D02*
X13543991Y-13578079D01*
X13543991Y-13578079D02*
X13553515Y-13616174D01*
X13553515Y-13616174D02*
X13553515Y-13663793D01*
X13553515Y-13663793D02*
X13543991Y-13701888D01*
X13543991Y-13701888D02*
X13534467Y-13720936D01*
X13534467Y-13720936D02*
X13524944Y-13730460D01*
X13524944Y-13730460D02*
X13505896Y-13739984D01*
X13505896Y-13739984D02*
X13486848Y-13739984D01*
X13486848Y-13739984D02*
X13467801Y-13730460D01*
X13467801Y-13730460D02*
X13458277Y-13720936D01*
X13458277Y-13720936D02*
X13448753Y-13701888D01*
X13448753Y-13701888D02*
X13439229Y-13663793D01*
X13439229Y-13663793D02*
X13439229Y-13616174D01*
X13439229Y-13616174D02*
X13448753Y-13578079D01*
X13448753Y-13578079D02*
X13458277Y-13559031D01*
X13458277Y-13559031D02*
X13467801Y-13549508D01*
X13467801Y-13549508D02*
X13486848Y-13539984D01*
X13620182Y-13539984D02*
X13743991Y-13539984D01*
X13743991Y-13539984D02*
X13677325Y-13616174D01*
X13677325Y-13616174D02*
X13705896Y-13616174D01*
X13705896Y-13616174D02*
X13724944Y-13625698D01*
X13724944Y-13625698D02*
X13734467Y-13635222D01*
X13734467Y-13635222D02*
X13743991Y-13654269D01*
X13743991Y-13654269D02*
X13743991Y-13701888D01*
X13743991Y-13701888D02*
X13734467Y-13720936D01*
X13734467Y-13720936D02*
X13724944Y-13730460D01*
X13724944Y-13730460D02*
X13705896Y-13739984D01*
X13705896Y-13739984D02*
X13648753Y-13739984D01*
X13648753Y-13739984D02*
X13629706Y-13730460D01*
X13629706Y-13730460D02*
X13620182Y-13720936D01*
X13934467Y-13739984D02*
X13820182Y-13739984D01*
X13877325Y-13739984D02*
X13877325Y-13539984D01*
X13877325Y-13539984D02*
X13858277Y-13568555D01*
X13858277Y-13568555D02*
X13839229Y-13587603D01*
X13839229Y-13587603D02*
X13820182Y-13597127D01*
X14115420Y-13539984D02*
X14020182Y-13539984D01*
X14020182Y-13539984D02*
X14010658Y-13635222D01*
X14010658Y-13635222D02*
X14020182Y-13625698D01*
X14020182Y-13625698D02*
X14039229Y-13616174D01*
X14039229Y-13616174D02*
X14086848Y-13616174D01*
X14086848Y-13616174D02*
X14105896Y-13625698D01*
X14105896Y-13625698D02*
X14115420Y-13635222D01*
X14115420Y-13635222D02*
X14124944Y-13654269D01*
X14124944Y-13654269D02*
X14124944Y-13701888D01*
X14124944Y-13701888D02*
X14115420Y-13720936D01*
X14115420Y-13720936D02*
X14105896Y-13730460D01*
X14105896Y-13730460D02*
X14086848Y-13739984D01*
X14086848Y-13739984D02*
X14039229Y-13739984D01*
X14039229Y-13739984D02*
X14020182Y-13730460D01*
X14020182Y-13730460D02*
X14010658Y-13720936D01*
X14201134Y-13539984D02*
X14201134Y-13578079D01*
X14277325Y-13539984D02*
X14277325Y-13578079D01*
X14572563Y-13816174D02*
X14563039Y-13806650D01*
X14563039Y-13806650D02*
X14543991Y-13778079D01*
X14543991Y-13778079D02*
X14534468Y-13759031D01*
X14534468Y-13759031D02*
X14524944Y-13730460D01*
X14524944Y-13730460D02*
X14515420Y-13682841D01*
X14515420Y-13682841D02*
X14515420Y-13644746D01*
X14515420Y-13644746D02*
X14524944Y-13597127D01*
X14524944Y-13597127D02*
X14534468Y-13568555D01*
X14534468Y-13568555D02*
X14543991Y-13549508D01*
X14543991Y-13549508D02*
X14563039Y-13520936D01*
X14563039Y-13520936D02*
X14572563Y-13511412D01*
X14677325Y-13625698D02*
X14658277Y-13616174D01*
X14658277Y-13616174D02*
X14648753Y-13606650D01*
X14648753Y-13606650D02*
X14639229Y-13587603D01*
X14639229Y-13587603D02*
X14639229Y-13578079D01*
X14639229Y-13578079D02*
X14648753Y-13559031D01*
X14648753Y-13559031D02*
X14658277Y-13549508D01*
X14658277Y-13549508D02*
X14677325Y-13539984D01*
X14677325Y-13539984D02*
X14715420Y-13539984D01*
X14715420Y-13539984D02*
X14734468Y-13549508D01*
X14734468Y-13549508D02*
X14743991Y-13559031D01*
X14743991Y-13559031D02*
X14753515Y-13578079D01*
X14753515Y-13578079D02*
X14753515Y-13587603D01*
X14753515Y-13587603D02*
X14743991Y-13606650D01*
X14743991Y-13606650D02*
X14734468Y-13616174D01*
X14734468Y-13616174D02*
X14715420Y-13625698D01*
X14715420Y-13625698D02*
X14677325Y-13625698D01*
X14677325Y-13625698D02*
X14658277Y-13635222D01*
X14658277Y-13635222D02*
X14648753Y-13644746D01*
X14648753Y-13644746D02*
X14639229Y-13663793D01*
X14639229Y-13663793D02*
X14639229Y-13701888D01*
X14639229Y-13701888D02*
X14648753Y-13720936D01*
X14648753Y-13720936D02*
X14658277Y-13730460D01*
X14658277Y-13730460D02*
X14677325Y-13739984D01*
X14677325Y-13739984D02*
X14715420Y-13739984D01*
X14715420Y-13739984D02*
X14734468Y-13730460D01*
X14734468Y-13730460D02*
X14743991Y-13720936D01*
X14743991Y-13720936D02*
X14753515Y-13701888D01*
X14753515Y-13701888D02*
X14753515Y-13663793D01*
X14753515Y-13663793D02*
X14743991Y-13644746D01*
X14743991Y-13644746D02*
X14734468Y-13635222D01*
X14734468Y-13635222D02*
X14715420Y-13625698D01*
X14991610Y-13739984D02*
X14991610Y-13539984D01*
X15077325Y-13739984D02*
X15077325Y-13635222D01*
X15077325Y-13635222D02*
X15067801Y-13616174D01*
X15067801Y-13616174D02*
X15048753Y-13606650D01*
X15048753Y-13606650D02*
X15020182Y-13606650D01*
X15020182Y-13606650D02*
X15001134Y-13616174D01*
X15001134Y-13616174D02*
X14991610Y-13625698D01*
X15201134Y-13739984D02*
X15182087Y-13730460D01*
X15182087Y-13730460D02*
X15172563Y-13720936D01*
X15172563Y-13720936D02*
X15163039Y-13701888D01*
X15163039Y-13701888D02*
X15163039Y-13644746D01*
X15163039Y-13644746D02*
X15172563Y-13625698D01*
X15172563Y-13625698D02*
X15182087Y-13616174D01*
X15182087Y-13616174D02*
X15201134Y-13606650D01*
X15201134Y-13606650D02*
X15229706Y-13606650D01*
X15229706Y-13606650D02*
X15248753Y-13616174D01*
X15248753Y-13616174D02*
X15258277Y-13625698D01*
X15258277Y-13625698D02*
X15267801Y-13644746D01*
X15267801Y-13644746D02*
X15267801Y-13701888D01*
X15267801Y-13701888D02*
X15258277Y-13720936D01*
X15258277Y-13720936D02*
X15248753Y-13730460D01*
X15248753Y-13730460D02*
X15229706Y-13739984D01*
X15229706Y-13739984D02*
X15201134Y-13739984D01*
X15382087Y-13739984D02*
X15363039Y-13730460D01*
X15363039Y-13730460D02*
X15353515Y-13711412D01*
X15353515Y-13711412D02*
X15353515Y-13539984D01*
X15534468Y-13730460D02*
X15515420Y-13739984D01*
X15515420Y-13739984D02*
X15477325Y-13739984D01*
X15477325Y-13739984D02*
X15458277Y-13730460D01*
X15458277Y-13730460D02*
X15448753Y-13711412D01*
X15448753Y-13711412D02*
X15448753Y-13635222D01*
X15448753Y-13635222D02*
X15458277Y-13616174D01*
X15458277Y-13616174D02*
X15477325Y-13606650D01*
X15477325Y-13606650D02*
X15515420Y-13606650D01*
X15515420Y-13606650D02*
X15534468Y-13616174D01*
X15534468Y-13616174D02*
X15543991Y-13635222D01*
X15543991Y-13635222D02*
X15543991Y-13654269D01*
X15543991Y-13654269D02*
X15448753Y-13673317D01*
X15620182Y-13730460D02*
X15639230Y-13739984D01*
X15639230Y-13739984D02*
X15677325Y-13739984D01*
X15677325Y-13739984D02*
X15696372Y-13730460D01*
X15696372Y-13730460D02*
X15705896Y-13711412D01*
X15705896Y-13711412D02*
X15705896Y-13701888D01*
X15705896Y-13701888D02*
X15696372Y-13682841D01*
X15696372Y-13682841D02*
X15677325Y-13673317D01*
X15677325Y-13673317D02*
X15648753Y-13673317D01*
X15648753Y-13673317D02*
X15629706Y-13663793D01*
X15629706Y-13663793D02*
X15620182Y-13644746D01*
X15620182Y-13644746D02*
X15620182Y-13635222D01*
X15620182Y-13635222D02*
X15629706Y-13616174D01*
X15629706Y-13616174D02*
X15648753Y-13606650D01*
X15648753Y-13606650D02*
X15677325Y-13606650D01*
X15677325Y-13606650D02*
X15696372Y-13616174D01*
X15772563Y-13816174D02*
X15782087Y-13806650D01*
X15782087Y-13806650D02*
X15801134Y-13778079D01*
X15801134Y-13778079D02*
X15810658Y-13759031D01*
X15810658Y-13759031D02*
X15820182Y-13730460D01*
X15820182Y-13730460D02*
X15829706Y-13682841D01*
X15829706Y-13682841D02*
X15829706Y-13644746D01*
X15829706Y-13644746D02*
X15820182Y-13597127D01*
X15820182Y-13597127D02*
X15810658Y-13568555D01*
X15810658Y-13568555D02*
X15801134Y-13549508D01*
X15801134Y-13549508D02*
X15782087Y-13520936D01*
X15782087Y-13520936D02*
X15772563Y-13511412D01*
D12*
X10912500Y-13870000D02*
X10997500Y-13955000D01*
X10997500Y-13870000D02*
X10912500Y-13955000D01*
X10997500Y-13912500D02*
G75*
G02*
X10912500Y-13912500I-42500J0D01*
G01*
X10912500Y-13912500D02*
G75*
G02*
X10997500Y-13912500I42500J0D01*
G01*
D11*
X11296372Y-13803984D02*
X11315420Y-13803984D01*
X11315420Y-13803984D02*
X11334467Y-13813508D01*
X11334467Y-13813508D02*
X11343991Y-13823031D01*
X11343991Y-13823031D02*
X11353515Y-13842079D01*
X11353515Y-13842079D02*
X11363039Y-13880174D01*
X11363039Y-13880174D02*
X11363039Y-13927793D01*
X11363039Y-13927793D02*
X11353515Y-13965888D01*
X11353515Y-13965888D02*
X11343991Y-13984936D01*
X11343991Y-13984936D02*
X11334467Y-13994460D01*
X11334467Y-13994460D02*
X11315420Y-14003984D01*
X11315420Y-14003984D02*
X11296372Y-14003984D01*
X11296372Y-14003984D02*
X11277324Y-13994460D01*
X11277324Y-13994460D02*
X11267801Y-13984936D01*
X11267801Y-13984936D02*
X11258277Y-13965888D01*
X11258277Y-13965888D02*
X11248753Y-13927793D01*
X11248753Y-13927793D02*
X11248753Y-13880174D01*
X11248753Y-13880174D02*
X11258277Y-13842079D01*
X11258277Y-13842079D02*
X11267801Y-13823031D01*
X11267801Y-13823031D02*
X11277324Y-13813508D01*
X11277324Y-13813508D02*
X11296372Y-13803984D01*
X11448753Y-13984936D02*
X11458277Y-13994460D01*
X11458277Y-13994460D02*
X11448753Y-14003984D01*
X11448753Y-14003984D02*
X11439229Y-13994460D01*
X11439229Y-13994460D02*
X11448753Y-13984936D01*
X11448753Y-13984936D02*
X11448753Y-14003984D01*
X11572562Y-13889698D02*
X11553515Y-13880174D01*
X11553515Y-13880174D02*
X11543991Y-13870650D01*
X11543991Y-13870650D02*
X11534467Y-13851603D01*
X11534467Y-13851603D02*
X11534467Y-13842079D01*
X11534467Y-13842079D02*
X11543991Y-13823031D01*
X11543991Y-13823031D02*
X11553515Y-13813508D01*
X11553515Y-13813508D02*
X11572562Y-13803984D01*
X11572562Y-13803984D02*
X11610658Y-13803984D01*
X11610658Y-13803984D02*
X11629705Y-13813508D01*
X11629705Y-13813508D02*
X11639229Y-13823031D01*
X11639229Y-13823031D02*
X11648753Y-13842079D01*
X11648753Y-13842079D02*
X11648753Y-13851603D01*
X11648753Y-13851603D02*
X11639229Y-13870650D01*
X11639229Y-13870650D02*
X11629705Y-13880174D01*
X11629705Y-13880174D02*
X11610658Y-13889698D01*
X11610658Y-13889698D02*
X11572562Y-13889698D01*
X11572562Y-13889698D02*
X11553515Y-13899222D01*
X11553515Y-13899222D02*
X11543991Y-13908746D01*
X11543991Y-13908746D02*
X11534467Y-13927793D01*
X11534467Y-13927793D02*
X11534467Y-13965888D01*
X11534467Y-13965888D02*
X11543991Y-13984936D01*
X11543991Y-13984936D02*
X11553515Y-13994460D01*
X11553515Y-13994460D02*
X11572562Y-14003984D01*
X11572562Y-14003984D02*
X11610658Y-14003984D01*
X11610658Y-14003984D02*
X11629705Y-13994460D01*
X11629705Y-13994460D02*
X11639229Y-13984936D01*
X11639229Y-13984936D02*
X11648753Y-13965888D01*
X11648753Y-13965888D02*
X11648753Y-13927793D01*
X11648753Y-13927793D02*
X11639229Y-13908746D01*
X11639229Y-13908746D02*
X11629705Y-13899222D01*
X11629705Y-13899222D02*
X11610658Y-13889698D01*
X11829705Y-13803984D02*
X11734467Y-13803984D01*
X11734467Y-13803984D02*
X11724943Y-13899222D01*
X11724943Y-13899222D02*
X11734467Y-13889698D01*
X11734467Y-13889698D02*
X11753515Y-13880174D01*
X11753515Y-13880174D02*
X11801134Y-13880174D01*
X11801134Y-13880174D02*
X11820182Y-13889698D01*
X11820182Y-13889698D02*
X11829705Y-13899222D01*
X11829705Y-13899222D02*
X11839229Y-13918269D01*
X11839229Y-13918269D02*
X11839229Y-13965888D01*
X11839229Y-13965888D02*
X11829705Y-13984936D01*
X11829705Y-13984936D02*
X11820182Y-13994460D01*
X11820182Y-13994460D02*
X11801134Y-14003984D01*
X11801134Y-14003984D02*
X11753515Y-14003984D01*
X11753515Y-14003984D02*
X11734467Y-13994460D01*
X11734467Y-13994460D02*
X11724943Y-13984936D01*
X11963039Y-13803984D02*
X11982086Y-13803984D01*
X11982086Y-13803984D02*
X12001134Y-13813508D01*
X12001134Y-13813508D02*
X12010658Y-13823031D01*
X12010658Y-13823031D02*
X12020182Y-13842079D01*
X12020182Y-13842079D02*
X12029705Y-13880174D01*
X12029705Y-13880174D02*
X12029705Y-13927793D01*
X12029705Y-13927793D02*
X12020182Y-13965888D01*
X12020182Y-13965888D02*
X12010658Y-13984936D01*
X12010658Y-13984936D02*
X12001134Y-13994460D01*
X12001134Y-13994460D02*
X11982086Y-14003984D01*
X11982086Y-14003984D02*
X11963039Y-14003984D01*
X11963039Y-14003984D02*
X11943991Y-13994460D01*
X11943991Y-13994460D02*
X11934467Y-13984936D01*
X11934467Y-13984936D02*
X11924943Y-13965888D01*
X11924943Y-13965888D02*
X11915420Y-13927793D01*
X11915420Y-13927793D02*
X11915420Y-13880174D01*
X11915420Y-13880174D02*
X11924943Y-13842079D01*
X11924943Y-13842079D02*
X11934467Y-13823031D01*
X11934467Y-13823031D02*
X11943991Y-13813508D01*
X11943991Y-13813508D02*
X11963039Y-13803984D01*
X12115420Y-14003984D02*
X12115420Y-13870650D01*
X12115420Y-13889698D02*
X12124943Y-13880174D01*
X12124943Y-13880174D02*
X12143991Y-13870650D01*
X12143991Y-13870650D02*
X12172563Y-13870650D01*
X12172563Y-13870650D02*
X12191610Y-13880174D01*
X12191610Y-13880174D02*
X12201134Y-13899222D01*
X12201134Y-13899222D02*
X12201134Y-14003984D01*
X12201134Y-13899222D02*
X12210658Y-13880174D01*
X12210658Y-13880174D02*
X12229705Y-13870650D01*
X12229705Y-13870650D02*
X12258277Y-13870650D01*
X12258277Y-13870650D02*
X12277324Y-13880174D01*
X12277324Y-13880174D02*
X12286848Y-13899222D01*
X12286848Y-13899222D02*
X12286848Y-14003984D01*
X12382086Y-14003984D02*
X12382086Y-13870650D01*
X12382086Y-13889698D02*
X12391610Y-13880174D01*
X12391610Y-13880174D02*
X12410658Y-13870650D01*
X12410658Y-13870650D02*
X12439229Y-13870650D01*
X12439229Y-13870650D02*
X12458277Y-13880174D01*
X12458277Y-13880174D02*
X12467801Y-13899222D01*
X12467801Y-13899222D02*
X12467801Y-14003984D01*
X12467801Y-13899222D02*
X12477324Y-13880174D01*
X12477324Y-13880174D02*
X12496372Y-13870650D01*
X12496372Y-13870650D02*
X12524943Y-13870650D01*
X12524943Y-13870650D02*
X12543991Y-13880174D01*
X12543991Y-13880174D02*
X12553515Y-13899222D01*
X12553515Y-13899222D02*
X12553515Y-14003984D01*
X12943991Y-13794460D02*
X12772563Y-14051603D01*
X13201134Y-13803984D02*
X13220182Y-13803984D01*
X13220182Y-13803984D02*
X13239229Y-13813508D01*
X13239229Y-13813508D02*
X13248753Y-13823031D01*
X13248753Y-13823031D02*
X13258277Y-13842079D01*
X13258277Y-13842079D02*
X13267801Y-13880174D01*
X13267801Y-13880174D02*
X13267801Y-13927793D01*
X13267801Y-13927793D02*
X13258277Y-13965888D01*
X13258277Y-13965888D02*
X13248753Y-13984936D01*
X13248753Y-13984936D02*
X13239229Y-13994460D01*
X13239229Y-13994460D02*
X13220182Y-14003984D01*
X13220182Y-14003984D02*
X13201134Y-14003984D01*
X13201134Y-14003984D02*
X13182086Y-13994460D01*
X13182086Y-13994460D02*
X13172563Y-13984936D01*
X13172563Y-13984936D02*
X13163039Y-13965888D01*
X13163039Y-13965888D02*
X13153515Y-13927793D01*
X13153515Y-13927793D02*
X13153515Y-13880174D01*
X13153515Y-13880174D02*
X13163039Y-13842079D01*
X13163039Y-13842079D02*
X13172563Y-13823031D01*
X13172563Y-13823031D02*
X13182086Y-13813508D01*
X13182086Y-13813508D02*
X13201134Y-13803984D01*
X13353515Y-13984936D02*
X13363039Y-13994460D01*
X13363039Y-13994460D02*
X13353515Y-14003984D01*
X13353515Y-14003984D02*
X13343991Y-13994460D01*
X13343991Y-13994460D02*
X13353515Y-13984936D01*
X13353515Y-13984936D02*
X13353515Y-14003984D01*
X13486848Y-13803984D02*
X13505896Y-13803984D01*
X13505896Y-13803984D02*
X13524944Y-13813508D01*
X13524944Y-13813508D02*
X13534467Y-13823031D01*
X13534467Y-13823031D02*
X13543991Y-13842079D01*
X13543991Y-13842079D02*
X13553515Y-13880174D01*
X13553515Y-13880174D02*
X13553515Y-13927793D01*
X13553515Y-13927793D02*
X13543991Y-13965888D01*
X13543991Y-13965888D02*
X13534467Y-13984936D01*
X13534467Y-13984936D02*
X13524944Y-13994460D01*
X13524944Y-13994460D02*
X13505896Y-14003984D01*
X13505896Y-14003984D02*
X13486848Y-14003984D01*
X13486848Y-14003984D02*
X13467801Y-13994460D01*
X13467801Y-13994460D02*
X13458277Y-13984936D01*
X13458277Y-13984936D02*
X13448753Y-13965888D01*
X13448753Y-13965888D02*
X13439229Y-13927793D01*
X13439229Y-13927793D02*
X13439229Y-13880174D01*
X13439229Y-13880174D02*
X13448753Y-13842079D01*
X13448753Y-13842079D02*
X13458277Y-13823031D01*
X13458277Y-13823031D02*
X13467801Y-13813508D01*
X13467801Y-13813508D02*
X13486848Y-13803984D01*
X13620182Y-13803984D02*
X13743991Y-13803984D01*
X13743991Y-13803984D02*
X13677325Y-13880174D01*
X13677325Y-13880174D02*
X13705896Y-13880174D01*
X13705896Y-13880174D02*
X13724944Y-13889698D01*
X13724944Y-13889698D02*
X13734467Y-13899222D01*
X13734467Y-13899222D02*
X13743991Y-13918269D01*
X13743991Y-13918269D02*
X13743991Y-13965888D01*
X13743991Y-13965888D02*
X13734467Y-13984936D01*
X13734467Y-13984936D02*
X13724944Y-13994460D01*
X13724944Y-13994460D02*
X13705896Y-14003984D01*
X13705896Y-14003984D02*
X13648753Y-14003984D01*
X13648753Y-14003984D02*
X13629706Y-13994460D01*
X13629706Y-13994460D02*
X13620182Y-13984936D01*
X13810658Y-13803984D02*
X13934467Y-13803984D01*
X13934467Y-13803984D02*
X13867801Y-13880174D01*
X13867801Y-13880174D02*
X13896372Y-13880174D01*
X13896372Y-13880174D02*
X13915420Y-13889698D01*
X13915420Y-13889698D02*
X13924944Y-13899222D01*
X13924944Y-13899222D02*
X13934467Y-13918269D01*
X13934467Y-13918269D02*
X13934467Y-13965888D01*
X13934467Y-13965888D02*
X13924944Y-13984936D01*
X13924944Y-13984936D02*
X13915420Y-13994460D01*
X13915420Y-13994460D02*
X13896372Y-14003984D01*
X13896372Y-14003984D02*
X13839229Y-14003984D01*
X13839229Y-14003984D02*
X13820182Y-13994460D01*
X13820182Y-13994460D02*
X13810658Y-13984936D01*
X14115420Y-13803984D02*
X14020182Y-13803984D01*
X14020182Y-13803984D02*
X14010658Y-13899222D01*
X14010658Y-13899222D02*
X14020182Y-13889698D01*
X14020182Y-13889698D02*
X14039229Y-13880174D01*
X14039229Y-13880174D02*
X14086848Y-13880174D01*
X14086848Y-13880174D02*
X14105896Y-13889698D01*
X14105896Y-13889698D02*
X14115420Y-13899222D01*
X14115420Y-13899222D02*
X14124944Y-13918269D01*
X14124944Y-13918269D02*
X14124944Y-13965888D01*
X14124944Y-13965888D02*
X14115420Y-13984936D01*
X14115420Y-13984936D02*
X14105896Y-13994460D01*
X14105896Y-13994460D02*
X14086848Y-14003984D01*
X14086848Y-14003984D02*
X14039229Y-14003984D01*
X14039229Y-14003984D02*
X14020182Y-13994460D01*
X14020182Y-13994460D02*
X14010658Y-13984936D01*
X14201134Y-13803984D02*
X14201134Y-13842079D01*
X14277325Y-13803984D02*
X14277325Y-13842079D01*
X14572563Y-14080174D02*
X14563039Y-14070650D01*
X14563039Y-14070650D02*
X14543991Y-14042079D01*
X14543991Y-14042079D02*
X14534468Y-14023031D01*
X14534468Y-14023031D02*
X14524944Y-13994460D01*
X14524944Y-13994460D02*
X14515420Y-13946841D01*
X14515420Y-13946841D02*
X14515420Y-13908746D01*
X14515420Y-13908746D02*
X14524944Y-13861127D01*
X14524944Y-13861127D02*
X14534468Y-13832555D01*
X14534468Y-13832555D02*
X14543991Y-13813508D01*
X14543991Y-13813508D02*
X14563039Y-13784936D01*
X14563039Y-13784936D02*
X14572563Y-13775412D01*
X14639229Y-13823031D02*
X14648753Y-13813508D01*
X14648753Y-13813508D02*
X14667801Y-13803984D01*
X14667801Y-13803984D02*
X14715420Y-13803984D01*
X14715420Y-13803984D02*
X14734468Y-13813508D01*
X14734468Y-13813508D02*
X14743991Y-13823031D01*
X14743991Y-13823031D02*
X14753515Y-13842079D01*
X14753515Y-13842079D02*
X14753515Y-13861127D01*
X14753515Y-13861127D02*
X14743991Y-13889698D01*
X14743991Y-13889698D02*
X14629706Y-14003984D01*
X14629706Y-14003984D02*
X14753515Y-14003984D01*
X14991610Y-14003984D02*
X14991610Y-13803984D01*
X15077325Y-14003984D02*
X15077325Y-13899222D01*
X15077325Y-13899222D02*
X15067801Y-13880174D01*
X15067801Y-13880174D02*
X15048753Y-13870650D01*
X15048753Y-13870650D02*
X15020182Y-13870650D01*
X15020182Y-13870650D02*
X15001134Y-13880174D01*
X15001134Y-13880174D02*
X14991610Y-13889698D01*
X15201134Y-14003984D02*
X15182087Y-13994460D01*
X15182087Y-13994460D02*
X15172563Y-13984936D01*
X15172563Y-13984936D02*
X15163039Y-13965888D01*
X15163039Y-13965888D02*
X15163039Y-13908746D01*
X15163039Y-13908746D02*
X15172563Y-13889698D01*
X15172563Y-13889698D02*
X15182087Y-13880174D01*
X15182087Y-13880174D02*
X15201134Y-13870650D01*
X15201134Y-13870650D02*
X15229706Y-13870650D01*
X15229706Y-13870650D02*
X15248753Y-13880174D01*
X15248753Y-13880174D02*
X15258277Y-13889698D01*
X15258277Y-13889698D02*
X15267801Y-13908746D01*
X15267801Y-13908746D02*
X15267801Y-13965888D01*
X15267801Y-13965888D02*
X15258277Y-13984936D01*
X15258277Y-13984936D02*
X15248753Y-13994460D01*
X15248753Y-13994460D02*
X15229706Y-14003984D01*
X15229706Y-14003984D02*
X15201134Y-14003984D01*
X15382087Y-14003984D02*
X15363039Y-13994460D01*
X15363039Y-13994460D02*
X15353515Y-13975412D01*
X15353515Y-13975412D02*
X15353515Y-13803984D01*
X15534468Y-13994460D02*
X15515420Y-14003984D01*
X15515420Y-14003984D02*
X15477325Y-14003984D01*
X15477325Y-14003984D02*
X15458277Y-13994460D01*
X15458277Y-13994460D02*
X15448753Y-13975412D01*
X15448753Y-13975412D02*
X15448753Y-13899222D01*
X15448753Y-13899222D02*
X15458277Y-13880174D01*
X15458277Y-13880174D02*
X15477325Y-13870650D01*
X15477325Y-13870650D02*
X15515420Y-13870650D01*
X15515420Y-13870650D02*
X15534468Y-13880174D01*
X15534468Y-13880174D02*
X15543991Y-13899222D01*
X15543991Y-13899222D02*
X15543991Y-13918269D01*
X15543991Y-13918269D02*
X15448753Y-13937317D01*
X15620182Y-13994460D02*
X15639230Y-14003984D01*
X15639230Y-14003984D02*
X15677325Y-14003984D01*
X15677325Y-14003984D02*
X15696372Y-13994460D01*
X15696372Y-13994460D02*
X15705896Y-13975412D01*
X15705896Y-13975412D02*
X15705896Y-13965888D01*
X15705896Y-13965888D02*
X15696372Y-13946841D01*
X15696372Y-13946841D02*
X15677325Y-13937317D01*
X15677325Y-13937317D02*
X15648753Y-13937317D01*
X15648753Y-13937317D02*
X15629706Y-13927793D01*
X15629706Y-13927793D02*
X15620182Y-13908746D01*
X15620182Y-13908746D02*
X15620182Y-13899222D01*
X15620182Y-13899222D02*
X15629706Y-13880174D01*
X15629706Y-13880174D02*
X15648753Y-13870650D01*
X15648753Y-13870650D02*
X15677325Y-13870650D01*
X15677325Y-13870650D02*
X15696372Y-13880174D01*
X15772563Y-14080174D02*
X15782087Y-14070650D01*
X15782087Y-14070650D02*
X15801134Y-14042079D01*
X15801134Y-14042079D02*
X15810658Y-14023031D01*
X15810658Y-14023031D02*
X15820182Y-13994460D01*
X15820182Y-13994460D02*
X15829706Y-13946841D01*
X15829706Y-13946841D02*
X15829706Y-13908746D01*
X15829706Y-13908746D02*
X15820182Y-13861127D01*
X15820182Y-13861127D02*
X15810658Y-13832555D01*
X15810658Y-13832555D02*
X15801134Y-13813508D01*
X15801134Y-13813508D02*
X15782087Y-13784936D01*
X15782087Y-13784936D02*
X15772563Y-13775412D01*
D12*
X10897500Y-14126500D02*
X10997500Y-14226500D01*
X10997500Y-14126500D02*
X10897500Y-14226500D01*
X10947500Y-14126500D02*
X10947500Y-14226500D01*
X10897500Y-14176500D02*
X10997500Y-14176500D01*
D11*
X11363039Y-14267984D02*
X11248753Y-14267984D01*
X11305896Y-14267984D02*
X11305896Y-14067984D01*
X11305896Y-14067984D02*
X11286848Y-14096555D01*
X11286848Y-14096555D02*
X11267801Y-14115603D01*
X11267801Y-14115603D02*
X11248753Y-14125127D01*
X11448753Y-14248936D02*
X11458277Y-14258460D01*
X11458277Y-14258460D02*
X11448753Y-14267984D01*
X11448753Y-14267984D02*
X11439229Y-14258460D01*
X11439229Y-14258460D02*
X11448753Y-14248936D01*
X11448753Y-14248936D02*
X11448753Y-14267984D01*
X11582086Y-14067984D02*
X11601134Y-14067984D01*
X11601134Y-14067984D02*
X11620182Y-14077508D01*
X11620182Y-14077508D02*
X11629705Y-14087031D01*
X11629705Y-14087031D02*
X11639229Y-14106079D01*
X11639229Y-14106079D02*
X11648753Y-14144174D01*
X11648753Y-14144174D02*
X11648753Y-14191793D01*
X11648753Y-14191793D02*
X11639229Y-14229888D01*
X11639229Y-14229888D02*
X11629705Y-14248936D01*
X11629705Y-14248936D02*
X11620182Y-14258460D01*
X11620182Y-14258460D02*
X11601134Y-14267984D01*
X11601134Y-14267984D02*
X11582086Y-14267984D01*
X11582086Y-14267984D02*
X11563039Y-14258460D01*
X11563039Y-14258460D02*
X11553515Y-14248936D01*
X11553515Y-14248936D02*
X11543991Y-14229888D01*
X11543991Y-14229888D02*
X11534467Y-14191793D01*
X11534467Y-14191793D02*
X11534467Y-14144174D01*
X11534467Y-14144174D02*
X11543991Y-14106079D01*
X11543991Y-14106079D02*
X11553515Y-14087031D01*
X11553515Y-14087031D02*
X11563039Y-14077508D01*
X11563039Y-14077508D02*
X11582086Y-14067984D01*
X11772562Y-14067984D02*
X11791610Y-14067984D01*
X11791610Y-14067984D02*
X11810658Y-14077508D01*
X11810658Y-14077508D02*
X11820182Y-14087031D01*
X11820182Y-14087031D02*
X11829705Y-14106079D01*
X11829705Y-14106079D02*
X11839229Y-14144174D01*
X11839229Y-14144174D02*
X11839229Y-14191793D01*
X11839229Y-14191793D02*
X11829705Y-14229888D01*
X11829705Y-14229888D02*
X11820182Y-14248936D01*
X11820182Y-14248936D02*
X11810658Y-14258460D01*
X11810658Y-14258460D02*
X11791610Y-14267984D01*
X11791610Y-14267984D02*
X11772562Y-14267984D01*
X11772562Y-14267984D02*
X11753515Y-14258460D01*
X11753515Y-14258460D02*
X11743991Y-14248936D01*
X11743991Y-14248936D02*
X11734467Y-14229888D01*
X11734467Y-14229888D02*
X11724943Y-14191793D01*
X11724943Y-14191793D02*
X11724943Y-14144174D01*
X11724943Y-14144174D02*
X11734467Y-14106079D01*
X11734467Y-14106079D02*
X11743991Y-14087031D01*
X11743991Y-14087031D02*
X11753515Y-14077508D01*
X11753515Y-14077508D02*
X11772562Y-14067984D01*
X11963039Y-14067984D02*
X11982086Y-14067984D01*
X11982086Y-14067984D02*
X12001134Y-14077508D01*
X12001134Y-14077508D02*
X12010658Y-14087031D01*
X12010658Y-14087031D02*
X12020182Y-14106079D01*
X12020182Y-14106079D02*
X12029705Y-14144174D01*
X12029705Y-14144174D02*
X12029705Y-14191793D01*
X12029705Y-14191793D02*
X12020182Y-14229888D01*
X12020182Y-14229888D02*
X12010658Y-14248936D01*
X12010658Y-14248936D02*
X12001134Y-14258460D01*
X12001134Y-14258460D02*
X11982086Y-14267984D01*
X11982086Y-14267984D02*
X11963039Y-14267984D01*
X11963039Y-14267984D02*
X11943991Y-14258460D01*
X11943991Y-14258460D02*
X11934467Y-14248936D01*
X11934467Y-14248936D02*
X11924943Y-14229888D01*
X11924943Y-14229888D02*
X11915420Y-14191793D01*
X11915420Y-14191793D02*
X11915420Y-14144174D01*
X11915420Y-14144174D02*
X11924943Y-14106079D01*
X11924943Y-14106079D02*
X11934467Y-14087031D01*
X11934467Y-14087031D02*
X11943991Y-14077508D01*
X11943991Y-14077508D02*
X11963039Y-14067984D01*
X12115420Y-14267984D02*
X12115420Y-14134650D01*
X12115420Y-14153698D02*
X12124943Y-14144174D01*
X12124943Y-14144174D02*
X12143991Y-14134650D01*
X12143991Y-14134650D02*
X12172563Y-14134650D01*
X12172563Y-14134650D02*
X12191610Y-14144174D01*
X12191610Y-14144174D02*
X12201134Y-14163222D01*
X12201134Y-14163222D02*
X12201134Y-14267984D01*
X12201134Y-14163222D02*
X12210658Y-14144174D01*
X12210658Y-14144174D02*
X12229705Y-14134650D01*
X12229705Y-14134650D02*
X12258277Y-14134650D01*
X12258277Y-14134650D02*
X12277324Y-14144174D01*
X12277324Y-14144174D02*
X12286848Y-14163222D01*
X12286848Y-14163222D02*
X12286848Y-14267984D01*
X12382086Y-14267984D02*
X12382086Y-14134650D01*
X12382086Y-14153698D02*
X12391610Y-14144174D01*
X12391610Y-14144174D02*
X12410658Y-14134650D01*
X12410658Y-14134650D02*
X12439229Y-14134650D01*
X12439229Y-14134650D02*
X12458277Y-14144174D01*
X12458277Y-14144174D02*
X12467801Y-14163222D01*
X12467801Y-14163222D02*
X12467801Y-14267984D01*
X12467801Y-14163222D02*
X12477324Y-14144174D01*
X12477324Y-14144174D02*
X12496372Y-14134650D01*
X12496372Y-14134650D02*
X12524943Y-14134650D01*
X12524943Y-14134650D02*
X12543991Y-14144174D01*
X12543991Y-14144174D02*
X12553515Y-14163222D01*
X12553515Y-14163222D02*
X12553515Y-14267984D01*
X12943991Y-14058460D02*
X12772563Y-14315603D01*
X13201134Y-14067984D02*
X13220182Y-14067984D01*
X13220182Y-14067984D02*
X13239229Y-14077508D01*
X13239229Y-14077508D02*
X13248753Y-14087031D01*
X13248753Y-14087031D02*
X13258277Y-14106079D01*
X13258277Y-14106079D02*
X13267801Y-14144174D01*
X13267801Y-14144174D02*
X13267801Y-14191793D01*
X13267801Y-14191793D02*
X13258277Y-14229888D01*
X13258277Y-14229888D02*
X13248753Y-14248936D01*
X13248753Y-14248936D02*
X13239229Y-14258460D01*
X13239229Y-14258460D02*
X13220182Y-14267984D01*
X13220182Y-14267984D02*
X13201134Y-14267984D01*
X13201134Y-14267984D02*
X13182086Y-14258460D01*
X13182086Y-14258460D02*
X13172563Y-14248936D01*
X13172563Y-14248936D02*
X13163039Y-14229888D01*
X13163039Y-14229888D02*
X13153515Y-14191793D01*
X13153515Y-14191793D02*
X13153515Y-14144174D01*
X13153515Y-14144174D02*
X13163039Y-14106079D01*
X13163039Y-14106079D02*
X13172563Y-14087031D01*
X13172563Y-14087031D02*
X13182086Y-14077508D01*
X13182086Y-14077508D02*
X13201134Y-14067984D01*
X13353515Y-14248936D02*
X13363039Y-14258460D01*
X13363039Y-14258460D02*
X13353515Y-14267984D01*
X13353515Y-14267984D02*
X13343991Y-14258460D01*
X13343991Y-14258460D02*
X13353515Y-14248936D01*
X13353515Y-14248936D02*
X13353515Y-14267984D01*
X13486848Y-14067984D02*
X13505896Y-14067984D01*
X13505896Y-14067984D02*
X13524944Y-14077508D01*
X13524944Y-14077508D02*
X13534467Y-14087031D01*
X13534467Y-14087031D02*
X13543991Y-14106079D01*
X13543991Y-14106079D02*
X13553515Y-14144174D01*
X13553515Y-14144174D02*
X13553515Y-14191793D01*
X13553515Y-14191793D02*
X13543991Y-14229888D01*
X13543991Y-14229888D02*
X13534467Y-14248936D01*
X13534467Y-14248936D02*
X13524944Y-14258460D01*
X13524944Y-14258460D02*
X13505896Y-14267984D01*
X13505896Y-14267984D02*
X13486848Y-14267984D01*
X13486848Y-14267984D02*
X13467801Y-14258460D01*
X13467801Y-14258460D02*
X13458277Y-14248936D01*
X13458277Y-14248936D02*
X13448753Y-14229888D01*
X13448753Y-14229888D02*
X13439229Y-14191793D01*
X13439229Y-14191793D02*
X13439229Y-14144174D01*
X13439229Y-14144174D02*
X13448753Y-14106079D01*
X13448753Y-14106079D02*
X13458277Y-14087031D01*
X13458277Y-14087031D02*
X13467801Y-14077508D01*
X13467801Y-14077508D02*
X13486848Y-14067984D01*
X13620182Y-14067984D02*
X13743991Y-14067984D01*
X13743991Y-14067984D02*
X13677325Y-14144174D01*
X13677325Y-14144174D02*
X13705896Y-14144174D01*
X13705896Y-14144174D02*
X13724944Y-14153698D01*
X13724944Y-14153698D02*
X13734467Y-14163222D01*
X13734467Y-14163222D02*
X13743991Y-14182269D01*
X13743991Y-14182269D02*
X13743991Y-14229888D01*
X13743991Y-14229888D02*
X13734467Y-14248936D01*
X13734467Y-14248936D02*
X13724944Y-14258460D01*
X13724944Y-14258460D02*
X13705896Y-14267984D01*
X13705896Y-14267984D02*
X13648753Y-14267984D01*
X13648753Y-14267984D02*
X13629706Y-14258460D01*
X13629706Y-14258460D02*
X13620182Y-14248936D01*
X13839229Y-14267984D02*
X13877325Y-14267984D01*
X13877325Y-14267984D02*
X13896372Y-14258460D01*
X13896372Y-14258460D02*
X13905896Y-14248936D01*
X13905896Y-14248936D02*
X13924944Y-14220365D01*
X13924944Y-14220365D02*
X13934467Y-14182269D01*
X13934467Y-14182269D02*
X13934467Y-14106079D01*
X13934467Y-14106079D02*
X13924944Y-14087031D01*
X13924944Y-14087031D02*
X13915420Y-14077508D01*
X13915420Y-14077508D02*
X13896372Y-14067984D01*
X13896372Y-14067984D02*
X13858277Y-14067984D01*
X13858277Y-14067984D02*
X13839229Y-14077508D01*
X13839229Y-14077508D02*
X13829706Y-14087031D01*
X13829706Y-14087031D02*
X13820182Y-14106079D01*
X13820182Y-14106079D02*
X13820182Y-14153698D01*
X13820182Y-14153698D02*
X13829706Y-14172746D01*
X13829706Y-14172746D02*
X13839229Y-14182269D01*
X13839229Y-14182269D02*
X13858277Y-14191793D01*
X13858277Y-14191793D02*
X13896372Y-14191793D01*
X13896372Y-14191793D02*
X13915420Y-14182269D01*
X13915420Y-14182269D02*
X13924944Y-14172746D01*
X13924944Y-14172746D02*
X13934467Y-14153698D01*
X14105896Y-14134650D02*
X14105896Y-14267984D01*
X14058277Y-14058460D02*
X14010658Y-14201317D01*
X14010658Y-14201317D02*
X14134467Y-14201317D01*
X14201134Y-14067984D02*
X14201134Y-14106079D01*
X14277325Y-14067984D02*
X14277325Y-14106079D01*
X14572563Y-14344174D02*
X14563039Y-14334650D01*
X14563039Y-14334650D02*
X14543991Y-14306079D01*
X14543991Y-14306079D02*
X14534468Y-14287031D01*
X14534468Y-14287031D02*
X14524944Y-14258460D01*
X14524944Y-14258460D02*
X14515420Y-14210841D01*
X14515420Y-14210841D02*
X14515420Y-14172746D01*
X14515420Y-14172746D02*
X14524944Y-14125127D01*
X14524944Y-14125127D02*
X14534468Y-14096555D01*
X14534468Y-14096555D02*
X14543991Y-14077508D01*
X14543991Y-14077508D02*
X14563039Y-14048936D01*
X14563039Y-14048936D02*
X14572563Y-14039412D01*
X14677325Y-14153698D02*
X14658277Y-14144174D01*
X14658277Y-14144174D02*
X14648753Y-14134650D01*
X14648753Y-14134650D02*
X14639229Y-14115603D01*
X14639229Y-14115603D02*
X14639229Y-14106079D01*
X14639229Y-14106079D02*
X14648753Y-14087031D01*
X14648753Y-14087031D02*
X14658277Y-14077508D01*
X14658277Y-14077508D02*
X14677325Y-14067984D01*
X14677325Y-14067984D02*
X14715420Y-14067984D01*
X14715420Y-14067984D02*
X14734468Y-14077508D01*
X14734468Y-14077508D02*
X14743991Y-14087031D01*
X14743991Y-14087031D02*
X14753515Y-14106079D01*
X14753515Y-14106079D02*
X14753515Y-14115603D01*
X14753515Y-14115603D02*
X14743991Y-14134650D01*
X14743991Y-14134650D02*
X14734468Y-14144174D01*
X14734468Y-14144174D02*
X14715420Y-14153698D01*
X14715420Y-14153698D02*
X14677325Y-14153698D01*
X14677325Y-14153698D02*
X14658277Y-14163222D01*
X14658277Y-14163222D02*
X14648753Y-14172746D01*
X14648753Y-14172746D02*
X14639229Y-14191793D01*
X14639229Y-14191793D02*
X14639229Y-14229888D01*
X14639229Y-14229888D02*
X14648753Y-14248936D01*
X14648753Y-14248936D02*
X14658277Y-14258460D01*
X14658277Y-14258460D02*
X14677325Y-14267984D01*
X14677325Y-14267984D02*
X14715420Y-14267984D01*
X14715420Y-14267984D02*
X14734468Y-14258460D01*
X14734468Y-14258460D02*
X14743991Y-14248936D01*
X14743991Y-14248936D02*
X14753515Y-14229888D01*
X14753515Y-14229888D02*
X14753515Y-14191793D01*
X14753515Y-14191793D02*
X14743991Y-14172746D01*
X14743991Y-14172746D02*
X14734468Y-14163222D01*
X14734468Y-14163222D02*
X14715420Y-14153698D01*
X14991610Y-14267984D02*
X14991610Y-14067984D01*
X15077325Y-14267984D02*
X15077325Y-14163222D01*
X15077325Y-14163222D02*
X15067801Y-14144174D01*
X15067801Y-14144174D02*
X15048753Y-14134650D01*
X15048753Y-14134650D02*
X15020182Y-14134650D01*
X15020182Y-14134650D02*
X15001134Y-14144174D01*
X15001134Y-14144174D02*
X14991610Y-14153698D01*
X15201134Y-14267984D02*
X15182087Y-14258460D01*
X15182087Y-14258460D02*
X15172563Y-14248936D01*
X15172563Y-14248936D02*
X15163039Y-14229888D01*
X15163039Y-14229888D02*
X15163039Y-14172746D01*
X15163039Y-14172746D02*
X15172563Y-14153698D01*
X15172563Y-14153698D02*
X15182087Y-14144174D01*
X15182087Y-14144174D02*
X15201134Y-14134650D01*
X15201134Y-14134650D02*
X15229706Y-14134650D01*
X15229706Y-14134650D02*
X15248753Y-14144174D01*
X15248753Y-14144174D02*
X15258277Y-14153698D01*
X15258277Y-14153698D02*
X15267801Y-14172746D01*
X15267801Y-14172746D02*
X15267801Y-14229888D01*
X15267801Y-14229888D02*
X15258277Y-14248936D01*
X15258277Y-14248936D02*
X15248753Y-14258460D01*
X15248753Y-14258460D02*
X15229706Y-14267984D01*
X15229706Y-14267984D02*
X15201134Y-14267984D01*
X15382087Y-14267984D02*
X15363039Y-14258460D01*
X15363039Y-14258460D02*
X15353515Y-14239412D01*
X15353515Y-14239412D02*
X15353515Y-14067984D01*
X15534468Y-14258460D02*
X15515420Y-14267984D01*
X15515420Y-14267984D02*
X15477325Y-14267984D01*
X15477325Y-14267984D02*
X15458277Y-14258460D01*
X15458277Y-14258460D02*
X15448753Y-14239412D01*
X15448753Y-14239412D02*
X15448753Y-14163222D01*
X15448753Y-14163222D02*
X15458277Y-14144174D01*
X15458277Y-14144174D02*
X15477325Y-14134650D01*
X15477325Y-14134650D02*
X15515420Y-14134650D01*
X15515420Y-14134650D02*
X15534468Y-14144174D01*
X15534468Y-14144174D02*
X15543991Y-14163222D01*
X15543991Y-14163222D02*
X15543991Y-14182269D01*
X15543991Y-14182269D02*
X15448753Y-14201317D01*
X15620182Y-14258460D02*
X15639230Y-14267984D01*
X15639230Y-14267984D02*
X15677325Y-14267984D01*
X15677325Y-14267984D02*
X15696372Y-14258460D01*
X15696372Y-14258460D02*
X15705896Y-14239412D01*
X15705896Y-14239412D02*
X15705896Y-14229888D01*
X15705896Y-14229888D02*
X15696372Y-14210841D01*
X15696372Y-14210841D02*
X15677325Y-14201317D01*
X15677325Y-14201317D02*
X15648753Y-14201317D01*
X15648753Y-14201317D02*
X15629706Y-14191793D01*
X15629706Y-14191793D02*
X15620182Y-14172746D01*
X15620182Y-14172746D02*
X15620182Y-14163222D01*
X15620182Y-14163222D02*
X15629706Y-14144174D01*
X15629706Y-14144174D02*
X15648753Y-14134650D01*
X15648753Y-14134650D02*
X15677325Y-14134650D01*
X15677325Y-14134650D02*
X15696372Y-14144174D01*
X15772563Y-14344174D02*
X15782087Y-14334650D01*
X15782087Y-14334650D02*
X15801134Y-14306079D01*
X15801134Y-14306079D02*
X15810658Y-14287031D01*
X15810658Y-14287031D02*
X15820182Y-14258460D01*
X15820182Y-14258460D02*
X15829706Y-14210841D01*
X15829706Y-14210841D02*
X15829706Y-14172746D01*
X15829706Y-14172746D02*
X15820182Y-14125127D01*
X15820182Y-14125127D02*
X15810658Y-14096555D01*
X15810658Y-14096555D02*
X15801134Y-14077508D01*
X15801134Y-14077508D02*
X15782087Y-14048936D01*
X15782087Y-14048936D02*
X15772563Y-14039412D01*
D13*
X10887500Y-14385500D02*
X10997500Y-14495500D01*
X10997500Y-14385500D02*
X10887500Y-14495500D01*
X10981391Y-14479391D02*
X10981391Y-14401609D01*
X10903609Y-14401609D01*
X10903609Y-14479391D01*
X10981391Y-14479391D01*
D11*
X11363039Y-14531984D02*
X11248753Y-14531984D01*
X11305896Y-14531984D02*
X11305896Y-14331984D01*
X11305896Y-14331984D02*
X11286848Y-14360555D01*
X11286848Y-14360555D02*
X11267801Y-14379603D01*
X11267801Y-14379603D02*
X11248753Y-14389127D01*
X11448753Y-14512936D02*
X11458277Y-14522460D01*
X11458277Y-14522460D02*
X11448753Y-14531984D01*
X11448753Y-14531984D02*
X11439229Y-14522460D01*
X11439229Y-14522460D02*
X11448753Y-14512936D01*
X11448753Y-14512936D02*
X11448753Y-14531984D01*
X11648753Y-14531984D02*
X11534467Y-14531984D01*
X11591610Y-14531984D02*
X11591610Y-14331984D01*
X11591610Y-14331984D02*
X11572562Y-14360555D01*
X11572562Y-14360555D02*
X11553515Y-14379603D01*
X11553515Y-14379603D02*
X11534467Y-14389127D01*
X11772562Y-14331984D02*
X11791610Y-14331984D01*
X11791610Y-14331984D02*
X11810658Y-14341508D01*
X11810658Y-14341508D02*
X11820182Y-14351031D01*
X11820182Y-14351031D02*
X11829705Y-14370079D01*
X11829705Y-14370079D02*
X11839229Y-14408174D01*
X11839229Y-14408174D02*
X11839229Y-14455793D01*
X11839229Y-14455793D02*
X11829705Y-14493888D01*
X11829705Y-14493888D02*
X11820182Y-14512936D01*
X11820182Y-14512936D02*
X11810658Y-14522460D01*
X11810658Y-14522460D02*
X11791610Y-14531984D01*
X11791610Y-14531984D02*
X11772562Y-14531984D01*
X11772562Y-14531984D02*
X11753515Y-14522460D01*
X11753515Y-14522460D02*
X11743991Y-14512936D01*
X11743991Y-14512936D02*
X11734467Y-14493888D01*
X11734467Y-14493888D02*
X11724943Y-14455793D01*
X11724943Y-14455793D02*
X11724943Y-14408174D01*
X11724943Y-14408174D02*
X11734467Y-14370079D01*
X11734467Y-14370079D02*
X11743991Y-14351031D01*
X11743991Y-14351031D02*
X11753515Y-14341508D01*
X11753515Y-14341508D02*
X11772562Y-14331984D01*
X11963039Y-14331984D02*
X11982086Y-14331984D01*
X11982086Y-14331984D02*
X12001134Y-14341508D01*
X12001134Y-14341508D02*
X12010658Y-14351031D01*
X12010658Y-14351031D02*
X12020182Y-14370079D01*
X12020182Y-14370079D02*
X12029705Y-14408174D01*
X12029705Y-14408174D02*
X12029705Y-14455793D01*
X12029705Y-14455793D02*
X12020182Y-14493888D01*
X12020182Y-14493888D02*
X12010658Y-14512936D01*
X12010658Y-14512936D02*
X12001134Y-14522460D01*
X12001134Y-14522460D02*
X11982086Y-14531984D01*
X11982086Y-14531984D02*
X11963039Y-14531984D01*
X11963039Y-14531984D02*
X11943991Y-14522460D01*
X11943991Y-14522460D02*
X11934467Y-14512936D01*
X11934467Y-14512936D02*
X11924943Y-14493888D01*
X11924943Y-14493888D02*
X11915420Y-14455793D01*
X11915420Y-14455793D02*
X11915420Y-14408174D01*
X11915420Y-14408174D02*
X11924943Y-14370079D01*
X11924943Y-14370079D02*
X11934467Y-14351031D01*
X11934467Y-14351031D02*
X11943991Y-14341508D01*
X11943991Y-14341508D02*
X11963039Y-14331984D01*
X12115420Y-14531984D02*
X12115420Y-14398650D01*
X12115420Y-14417698D02*
X12124943Y-14408174D01*
X12124943Y-14408174D02*
X12143991Y-14398650D01*
X12143991Y-14398650D02*
X12172563Y-14398650D01*
X12172563Y-14398650D02*
X12191610Y-14408174D01*
X12191610Y-14408174D02*
X12201134Y-14427222D01*
X12201134Y-14427222D02*
X12201134Y-14531984D01*
X12201134Y-14427222D02*
X12210658Y-14408174D01*
X12210658Y-14408174D02*
X12229705Y-14398650D01*
X12229705Y-14398650D02*
X12258277Y-14398650D01*
X12258277Y-14398650D02*
X12277324Y-14408174D01*
X12277324Y-14408174D02*
X12286848Y-14427222D01*
X12286848Y-14427222D02*
X12286848Y-14531984D01*
X12382086Y-14531984D02*
X12382086Y-14398650D01*
X12382086Y-14417698D02*
X12391610Y-14408174D01*
X12391610Y-14408174D02*
X12410658Y-14398650D01*
X12410658Y-14398650D02*
X12439229Y-14398650D01*
X12439229Y-14398650D02*
X12458277Y-14408174D01*
X12458277Y-14408174D02*
X12467801Y-14427222D01*
X12467801Y-14427222D02*
X12467801Y-14531984D01*
X12467801Y-14427222D02*
X12477324Y-14408174D01*
X12477324Y-14408174D02*
X12496372Y-14398650D01*
X12496372Y-14398650D02*
X12524943Y-14398650D01*
X12524943Y-14398650D02*
X12543991Y-14408174D01*
X12543991Y-14408174D02*
X12553515Y-14427222D01*
X12553515Y-14427222D02*
X12553515Y-14531984D01*
X12943991Y-14322460D02*
X12772563Y-14579603D01*
X13201134Y-14331984D02*
X13220182Y-14331984D01*
X13220182Y-14331984D02*
X13239229Y-14341508D01*
X13239229Y-14341508D02*
X13248753Y-14351031D01*
X13248753Y-14351031D02*
X13258277Y-14370079D01*
X13258277Y-14370079D02*
X13267801Y-14408174D01*
X13267801Y-14408174D02*
X13267801Y-14455793D01*
X13267801Y-14455793D02*
X13258277Y-14493888D01*
X13258277Y-14493888D02*
X13248753Y-14512936D01*
X13248753Y-14512936D02*
X13239229Y-14522460D01*
X13239229Y-14522460D02*
X13220182Y-14531984D01*
X13220182Y-14531984D02*
X13201134Y-14531984D01*
X13201134Y-14531984D02*
X13182086Y-14522460D01*
X13182086Y-14522460D02*
X13172563Y-14512936D01*
X13172563Y-14512936D02*
X13163039Y-14493888D01*
X13163039Y-14493888D02*
X13153515Y-14455793D01*
X13153515Y-14455793D02*
X13153515Y-14408174D01*
X13153515Y-14408174D02*
X13163039Y-14370079D01*
X13163039Y-14370079D02*
X13172563Y-14351031D01*
X13172563Y-14351031D02*
X13182086Y-14341508D01*
X13182086Y-14341508D02*
X13201134Y-14331984D01*
X13353515Y-14512936D02*
X13363039Y-14522460D01*
X13363039Y-14522460D02*
X13353515Y-14531984D01*
X13353515Y-14531984D02*
X13343991Y-14522460D01*
X13343991Y-14522460D02*
X13353515Y-14512936D01*
X13353515Y-14512936D02*
X13353515Y-14531984D01*
X13486848Y-14331984D02*
X13505896Y-14331984D01*
X13505896Y-14331984D02*
X13524944Y-14341508D01*
X13524944Y-14341508D02*
X13534467Y-14351031D01*
X13534467Y-14351031D02*
X13543991Y-14370079D01*
X13543991Y-14370079D02*
X13553515Y-14408174D01*
X13553515Y-14408174D02*
X13553515Y-14455793D01*
X13553515Y-14455793D02*
X13543991Y-14493888D01*
X13543991Y-14493888D02*
X13534467Y-14512936D01*
X13534467Y-14512936D02*
X13524944Y-14522460D01*
X13524944Y-14522460D02*
X13505896Y-14531984D01*
X13505896Y-14531984D02*
X13486848Y-14531984D01*
X13486848Y-14531984D02*
X13467801Y-14522460D01*
X13467801Y-14522460D02*
X13458277Y-14512936D01*
X13458277Y-14512936D02*
X13448753Y-14493888D01*
X13448753Y-14493888D02*
X13439229Y-14455793D01*
X13439229Y-14455793D02*
X13439229Y-14408174D01*
X13439229Y-14408174D02*
X13448753Y-14370079D01*
X13448753Y-14370079D02*
X13458277Y-14351031D01*
X13458277Y-14351031D02*
X13467801Y-14341508D01*
X13467801Y-14341508D02*
X13486848Y-14331984D01*
X13724944Y-14398650D02*
X13724944Y-14531984D01*
X13677325Y-14322460D02*
X13629706Y-14465317D01*
X13629706Y-14465317D02*
X13753515Y-14465317D01*
X13810658Y-14331984D02*
X13934467Y-14331984D01*
X13934467Y-14331984D02*
X13867801Y-14408174D01*
X13867801Y-14408174D02*
X13896372Y-14408174D01*
X13896372Y-14408174D02*
X13915420Y-14417698D01*
X13915420Y-14417698D02*
X13924944Y-14427222D01*
X13924944Y-14427222D02*
X13934467Y-14446269D01*
X13934467Y-14446269D02*
X13934467Y-14493888D01*
X13934467Y-14493888D02*
X13924944Y-14512936D01*
X13924944Y-14512936D02*
X13915420Y-14522460D01*
X13915420Y-14522460D02*
X13896372Y-14531984D01*
X13896372Y-14531984D02*
X13839229Y-14531984D01*
X13839229Y-14531984D02*
X13820182Y-14522460D01*
X13820182Y-14522460D02*
X13810658Y-14512936D01*
X14001134Y-14331984D02*
X14124944Y-14331984D01*
X14124944Y-14331984D02*
X14058277Y-14408174D01*
X14058277Y-14408174D02*
X14086848Y-14408174D01*
X14086848Y-14408174D02*
X14105896Y-14417698D01*
X14105896Y-14417698D02*
X14115420Y-14427222D01*
X14115420Y-14427222D02*
X14124944Y-14446269D01*
X14124944Y-14446269D02*
X14124944Y-14493888D01*
X14124944Y-14493888D02*
X14115420Y-14512936D01*
X14115420Y-14512936D02*
X14105896Y-14522460D01*
X14105896Y-14522460D02*
X14086848Y-14531984D01*
X14086848Y-14531984D02*
X14029706Y-14531984D01*
X14029706Y-14531984D02*
X14010658Y-14522460D01*
X14010658Y-14522460D02*
X14001134Y-14512936D01*
X14201134Y-14331984D02*
X14201134Y-14370079D01*
X14277325Y-14331984D02*
X14277325Y-14370079D01*
X14572563Y-14608174D02*
X14563039Y-14598650D01*
X14563039Y-14598650D02*
X14543991Y-14570079D01*
X14543991Y-14570079D02*
X14534468Y-14551031D01*
X14534468Y-14551031D02*
X14524944Y-14522460D01*
X14524944Y-14522460D02*
X14515420Y-14474841D01*
X14515420Y-14474841D02*
X14515420Y-14436746D01*
X14515420Y-14436746D02*
X14524944Y-14389127D01*
X14524944Y-14389127D02*
X14534468Y-14360555D01*
X14534468Y-14360555D02*
X14543991Y-14341508D01*
X14543991Y-14341508D02*
X14563039Y-14312936D01*
X14563039Y-14312936D02*
X14572563Y-14303412D01*
X14677325Y-14417698D02*
X14658277Y-14408174D01*
X14658277Y-14408174D02*
X14648753Y-14398650D01*
X14648753Y-14398650D02*
X14639229Y-14379603D01*
X14639229Y-14379603D02*
X14639229Y-14370079D01*
X14639229Y-14370079D02*
X14648753Y-14351031D01*
X14648753Y-14351031D02*
X14658277Y-14341508D01*
X14658277Y-14341508D02*
X14677325Y-14331984D01*
X14677325Y-14331984D02*
X14715420Y-14331984D01*
X14715420Y-14331984D02*
X14734468Y-14341508D01*
X14734468Y-14341508D02*
X14743991Y-14351031D01*
X14743991Y-14351031D02*
X14753515Y-14370079D01*
X14753515Y-14370079D02*
X14753515Y-14379603D01*
X14753515Y-14379603D02*
X14743991Y-14398650D01*
X14743991Y-14398650D02*
X14734468Y-14408174D01*
X14734468Y-14408174D02*
X14715420Y-14417698D01*
X14715420Y-14417698D02*
X14677325Y-14417698D01*
X14677325Y-14417698D02*
X14658277Y-14427222D01*
X14658277Y-14427222D02*
X14648753Y-14436746D01*
X14648753Y-14436746D02*
X14639229Y-14455793D01*
X14639229Y-14455793D02*
X14639229Y-14493888D01*
X14639229Y-14493888D02*
X14648753Y-14512936D01*
X14648753Y-14512936D02*
X14658277Y-14522460D01*
X14658277Y-14522460D02*
X14677325Y-14531984D01*
X14677325Y-14531984D02*
X14715420Y-14531984D01*
X14715420Y-14531984D02*
X14734468Y-14522460D01*
X14734468Y-14522460D02*
X14743991Y-14512936D01*
X14743991Y-14512936D02*
X14753515Y-14493888D01*
X14753515Y-14493888D02*
X14753515Y-14455793D01*
X14753515Y-14455793D02*
X14743991Y-14436746D01*
X14743991Y-14436746D02*
X14734468Y-14427222D01*
X14734468Y-14427222D02*
X14715420Y-14417698D01*
X14991610Y-14531984D02*
X14991610Y-14331984D01*
X15077325Y-14531984D02*
X15077325Y-14427222D01*
X15077325Y-14427222D02*
X15067801Y-14408174D01*
X15067801Y-14408174D02*
X15048753Y-14398650D01*
X15048753Y-14398650D02*
X15020182Y-14398650D01*
X15020182Y-14398650D02*
X15001134Y-14408174D01*
X15001134Y-14408174D02*
X14991610Y-14417698D01*
X15201134Y-14531984D02*
X15182087Y-14522460D01*
X15182087Y-14522460D02*
X15172563Y-14512936D01*
X15172563Y-14512936D02*
X15163039Y-14493888D01*
X15163039Y-14493888D02*
X15163039Y-14436746D01*
X15163039Y-14436746D02*
X15172563Y-14417698D01*
X15172563Y-14417698D02*
X15182087Y-14408174D01*
X15182087Y-14408174D02*
X15201134Y-14398650D01*
X15201134Y-14398650D02*
X15229706Y-14398650D01*
X15229706Y-14398650D02*
X15248753Y-14408174D01*
X15248753Y-14408174D02*
X15258277Y-14417698D01*
X15258277Y-14417698D02*
X15267801Y-14436746D01*
X15267801Y-14436746D02*
X15267801Y-14493888D01*
X15267801Y-14493888D02*
X15258277Y-14512936D01*
X15258277Y-14512936D02*
X15248753Y-14522460D01*
X15248753Y-14522460D02*
X15229706Y-14531984D01*
X15229706Y-14531984D02*
X15201134Y-14531984D01*
X15382087Y-14531984D02*
X15363039Y-14522460D01*
X15363039Y-14522460D02*
X15353515Y-14503412D01*
X15353515Y-14503412D02*
X15353515Y-14331984D01*
X15534468Y-14522460D02*
X15515420Y-14531984D01*
X15515420Y-14531984D02*
X15477325Y-14531984D01*
X15477325Y-14531984D02*
X15458277Y-14522460D01*
X15458277Y-14522460D02*
X15448753Y-14503412D01*
X15448753Y-14503412D02*
X15448753Y-14427222D01*
X15448753Y-14427222D02*
X15458277Y-14408174D01*
X15458277Y-14408174D02*
X15477325Y-14398650D01*
X15477325Y-14398650D02*
X15515420Y-14398650D01*
X15515420Y-14398650D02*
X15534468Y-14408174D01*
X15534468Y-14408174D02*
X15543991Y-14427222D01*
X15543991Y-14427222D02*
X15543991Y-14446269D01*
X15543991Y-14446269D02*
X15448753Y-14465317D01*
X15620182Y-14522460D02*
X15639230Y-14531984D01*
X15639230Y-14531984D02*
X15677325Y-14531984D01*
X15677325Y-14531984D02*
X15696372Y-14522460D01*
X15696372Y-14522460D02*
X15705896Y-14503412D01*
X15705896Y-14503412D02*
X15705896Y-14493888D01*
X15705896Y-14493888D02*
X15696372Y-14474841D01*
X15696372Y-14474841D02*
X15677325Y-14465317D01*
X15677325Y-14465317D02*
X15648753Y-14465317D01*
X15648753Y-14465317D02*
X15629706Y-14455793D01*
X15629706Y-14455793D02*
X15620182Y-14436746D01*
X15620182Y-14436746D02*
X15620182Y-14427222D01*
X15620182Y-14427222D02*
X15629706Y-14408174D01*
X15629706Y-14408174D02*
X15648753Y-14398650D01*
X15648753Y-14398650D02*
X15677325Y-14398650D01*
X15677325Y-14398650D02*
X15696372Y-14408174D01*
X15772563Y-14608174D02*
X15782087Y-14598650D01*
X15782087Y-14598650D02*
X15801134Y-14570079D01*
X15801134Y-14570079D02*
X15810658Y-14551031D01*
X15810658Y-14551031D02*
X15820182Y-14522460D01*
X15820182Y-14522460D02*
X15829706Y-14474841D01*
X15829706Y-14474841D02*
X15829706Y-14436746D01*
X15829706Y-14436746D02*
X15820182Y-14389127D01*
X15820182Y-14389127D02*
X15810658Y-14360555D01*
X15810658Y-14360555D02*
X15801134Y-14341508D01*
X15801134Y-14341508D02*
X15782087Y-14312936D01*
X15782087Y-14312936D02*
X15772563Y-14303412D01*
M02*
